<svg width="24" height="24" viewBox="0 0 24 24" fill="none" xmlns="http://www.w3.org/2000/svg">
<rect width="24" height="24" fill="white"/>
<path opacity="0.9" fill-rule="evenodd" clip-rule="evenodd" d="M22 12C22 17.5228 17.5228 22 12 22C6.47715 22 2 17.5228 2 12C2 6.47715 6.47715 2 12 2C17.5228 2 22 6.47715 22 12ZM8.04998 11C8.2642 8.34941 9.11183 5.99355 10.0427 4.24117C6.88476 5.03531 4.47254 7.70686 4.06189 11H8.04998ZM8.01483 13H4.06189C4.46971 16.2704 6.85153 18.9278 9.9774 19.7421C8.68342 17.4592 8.11594 15.1631 8.01483 13ZM10.0237 13H13.9413C13.7197 15.4777 12.8724 17.6578 11.9836 19.2038C10.7014 17.1135 10.1351 14.9955 10.0237 13ZM13.9763 11H10.0587C10.2803 8.52229 11.1276 6.34224 12.0164 4.79621C13.2986 6.88649 13.8649 9.0045 13.9763 11ZM15.95 13C15.7358 15.6506 14.8882 18.0065 13.9573 19.7588C17.1152 18.9647 19.5275 16.2931 19.9381 13H15.95ZM19.9381 11H15.9852C15.8841 8.83685 15.3166 6.54082 14.0226 4.25789C17.1485 5.07224 19.5303 7.7296 19.9381 11Z" fill="#020437"/>
</svg>
