<svg width="113" height="115" viewBox="0 0 113 115" fill="none" xmlns="http://www.w3.org/2000/svg">
<g clip-path="url(#clip0)">
<path d="M34.8417 76.2097C35.1888 75.3743 35.6621 74.9164 36.2774 74.5951C39.4484 72.9363 41.093 70.3137 40.3239 66.711C39.5588 63.1445 37.0504 60.5941 33.6073 60.3371C27.6715 59.8993 21.6806 60.2166 15.6738 60.2166C15.8 61.0279 16.2852 60.9275 16.5888 60.8753C19.8269 60.309 20.3593 62.0039 20.3041 64.8715C20.1463 72.6793 20.2489 80.4951 20.2489 88.3069C20.2489 93.0382 20.2489 93.0341 15.8276 93.7129C15.7685 93.7209 15.7527 94.0262 15.6817 94.3354C20.0556 94.3354 24.394 94.3354 29.0598 94.3354C27.4664 93.7089 25.2183 94.9258 25.2736 92.0501C25.3603 87.5599 25.2893 83.0656 25.3051 78.5753C25.3091 77.8001 25.3209 77.0692 26.2753 76.6916C30.8386 74.8923 35.5122 77.6997 36.0841 82.6077C36.3405 84.8287 36.6087 87.0538 36.9636 89.2588C37.5631 92.994 39.8664 94.7331 43.9485 94.3274C41.4519 91.7851 41.4716 88.568 41.4401 85.5316C41.3809 80.712 39.4405 77.531 34.8417 76.2097ZM26.3463 75.3662C25.3564 75.0489 25.3012 74.3621 25.2933 73.5669C25.2775 71.7154 25.2893 69.8638 25.2893 68.0163C25.2814 67.0404 25.2814 66.0684 25.2814 65.0924C25.2854 60.8793 27.1351 59.6623 31.1462 61.2327C34.684 62.6184 36.2695 67.2612 34.7195 71.7274C33.6388 74.8521 29.8171 76.4747 26.3463 75.3662Z" fill="#160204"/>
<path d="M93.9343 48.9633C93.8081 48.3006 93.8515 47.6017 93.8396 46.919C93.7765 43.2119 92.5105 40.284 88.9017 38.7939C87.4582 38.1995 86.9731 37.6533 88.8307 36.6693C91.9189 35.0306 93.2914 31.8496 92.6525 28.6125C92.0017 25.3271 89.0319 22.4875 85.5375 22.3831C79.7161 22.2104 73.8829 22.3349 68.0576 22.3349C72.5538 23.4715 72.5577 23.4715 72.5577 28.6084C72.5577 36.3198 72.4039 44.0352 72.6327 51.7426C72.7234 54.8312 72.0253 56.3574 68.803 55.9196C68.7636 55.9156 68.6966 56.1164 68.5901 56.3212C73.0665 56.3212 77.4483 56.3212 82.0707 56.3212C81.1005 55.518 80.2131 55.8111 79.4124 55.8312C77.9965 55.8714 77.2984 55.4256 77.3221 53.8431C77.3852 49.3529 77.3576 44.8626 77.3379 40.3723C77.33 38.9184 77.9492 38.2316 79.4006 38.2075C85.1983 38.1232 87.9118 39.3722 88.5744 45.6136C88.7164 46.9712 88.7716 48.3367 88.8584 49.6983C89.2488 55.8312 92.7314 58.1888 99.026 55.9638C93.5478 56.1124 94.522 52.0117 93.9343 48.9633ZM86.3263 35.0185C85.0011 37.8099 82.2127 37.7095 79.5781 37.7657C77.7914 37.8059 77.2077 37.0829 77.3142 35.3519C77.4168 33.7052 77.3379 32.0464 77.3379 30.3957C77.3339 29.4238 77.1841 28.4197 77.3694 27.4839C77.6731 25.9416 76.273 23.7768 78.6749 22.9655C81.1715 22.118 84.9735 23.3551 86.0975 25.4636C87.7422 28.5562 87.8014 31.9059 86.3263 35.0185Z" fill="#160204"/>
<path d="M46.7194 55.7871C46.6978 55.8002 46.672 55.8133 46.6504 55.8264C46.6892 55.8264 46.7237 55.8308 46.7669 55.8308L46.7194 55.7871Z" fill="#160204"/>
<path d="M29.4976 56.2341C28.0935 55.0694 25.2696 57.202 25.2854 53.8243C25.3051 49.4264 25.2815 45.0245 25.2933 40.6266C25.2972 39.8595 25.2578 39.1044 26.1965 38.6947C30.5664 36.7829 35.5398 39.5221 36.2498 44.3497C36.5929 46.6672 36.6126 49.0328 36.9833 51.3422C37.78 56.2823 42.2526 58.3065 46.6462 55.8244C43.1952 55.7602 41.9844 54.5954 41.6807 51.0169C41.5978 50.0449 41.6018 49.0649 41.5663 48.0849C41.4046 43.9722 40.5132 40.3736 36.159 38.6746C34.262 37.9356 35.4412 37.2769 36.4667 36.6584C39.8388 34.6221 41.0378 32.2646 40.462 29.0314C39.8585 25.6617 37.2989 22.7016 33.9701 22.4888C29.1624 22.1835 24.3231 22.4084 19.1051 22.4084C20.3712 23.7178 20.2489 24.995 20.2489 26.2601C20.241 34.7667 20.099 43.2734 20.3238 51.7719C20.4067 54.8886 19.6967 56.3867 16.4666 55.8847C16.3995 55.8726 16.297 56.0855 16.0801 56.3586C20.596 56.4189 24.9659 56.6317 29.4976 56.2341ZM28.0383 22.8703C33.13 23.0511 35.4294 25.6858 35.2085 31.2243C35.0271 35.827 32.2584 38.0401 27.2732 37.7669C25.7902 37.6866 25.2144 37.1685 25.2736 35.6825C25.3406 33.9353 25.2894 32.1802 25.2894 30.4291C25.2815 28.7743 25.3761 27.1156 25.2617 25.4689C25.1119 23.3161 26.1728 22.8061 28.0383 22.8703Z" fill="#160204"/>
<path d="M64.3263 79.5361C63.5769 78.9738 63.076 80.0823 62.5672 80.6205C61.9835 81.235 61.4195 82.207 60.4611 81.7652C59.2858 81.223 59.8498 80.1064 60.0431 79.1907C60.8082 75.5519 62.0427 72.0737 63.5138 68.6799C63.8254 67.965 64.2277 67.1818 63.5927 66.4991C62.8315 65.6838 62.2004 66.3344 61.6562 66.8967C61.0567 67.5152 60.2758 67.4429 59.5461 67.6397C52.4784 69.5676 48.1597 74.584 45.4147 81.1547C44.8073 82.6086 44.6851 84.5726 46.2232 85.7534C47.8403 86.9985 49.5323 86.2434 51.0507 85.3357C53.0385 84.1469 54.5491 82.3797 56.2213 80.2791C56.7498 81.5081 56.3594 82.2471 56.2647 82.9982C56.1227 84.1027 56.1582 85.2393 57.1087 85.9341C58.2012 86.7294 59.3174 86.1952 60.3349 85.5928C61.877 84.681 62.6974 83.0625 63.8057 81.7371C64.2829 81.1627 65.2965 80.2671 64.3263 79.5361ZM58.6705 73.5357C56.8366 76.7448 55.0026 79.9699 51.9736 82.215C51.2913 82.7211 50.4867 83.2191 49.5756 82.7612C48.7237 82.3315 48.8736 81.468 48.846 80.7008C48.9643 76.9576 52.7979 71.7042 56.241 70.6841C57.1403 70.419 58.2801 70.1298 58.9782 70.8729C59.7394 71.6842 59.1517 72.6923 58.6705 73.5357Z" fill="#160204"/>
<path d="M53.7603 52.2567C55.756 52.2447 57.1837 51.1121 58.3827 49.6742C59.3608 48.5014 61.8061 47.3729 60.5716 45.8989C59.5817 44.718 58.7337 47.5094 57.4519 47.9753C56.7498 48.2283 56.5369 49.7224 55.4089 48.8589C54.4505 48.1239 55.0618 47.3206 55.3971 46.5334C56.7025 43.4288 58.0474 40.3402 59.2701 37.2035C59.838 35.7415 61.0528 34.0547 59.3174 32.6891C57.6136 31.3476 56.0596 32.5686 54.6359 33.5526C53.9299 34.0386 53.3186 34.6692 52.6915 35.2636C52.3286 35.613 52.0999 36.107 52.3957 36.5649C52.7151 37.0629 53.2239 36.8741 53.6814 36.6974C54.3401 36.4404 54.9277 35.376 55.6613 36.099C56.4067 36.838 55.6731 37.7376 55.3813 38.5289C54.135 41.8986 52.7624 45.2241 51.6423 48.634C50.8457 51.0558 51.6739 52.2567 53.7603 52.2567Z" fill="#160204"/>
<path d="M59.8268 30.1789C61.1362 30.1227 61.8698 29.2913 61.9329 27.8816C61.6766 26.5682 60.872 25.9015 59.531 26.01C58.2335 26.1144 57.705 26.9899 57.8036 28.1989C57.8982 29.3957 58.6042 30.2311 59.8268 30.1789Z" fill="#160204"/>
<path d="M91.283 94.3962C92.9986 94.3962 94.9036 94.3962 96.8756 94.3962C95.5898 93.1953 95.9685 91.5767 95.9606 90.0947C95.9251 82.7809 95.9488 75.4672 95.933 68.1534C95.933 67.4024 96.2051 66.4384 95.3887 66.0207C94.5092 65.5749 94.0753 66.575 93.5035 67.0007C92.131 68.0169 90.8097 69.1093 89.4688 70.1696C92.5806 68.6555 92.4544 70.7279 92.4425 72.7842C92.4149 78.8288 92.4307 84.8734 92.4346 90.922C92.4386 92.2876 92.4544 93.6572 91.283 94.3962Z" fill="#FDF7F8"/>
<path d="M83.1602 79.3429C86.0354 74.8004 85.5503 67.0007 78.3446 66.2456C84.0397 74.2662 79.8394 80.7767 75.0986 87.2912C78.3525 85.0742 81.1251 82.56 83.1602 79.3429Z" fill="#FDF7F8"/>
<path d="M78.5171 91.3882C76.4189 91.2516 74.3049 91.597 72.2146 91.1231C71.0905 90.8661 70.1124 91.2356 69.363 92.0991C68.8819 92.6533 67.8209 92.9827 68.0694 93.8542C68.3455 94.8221 69.3828 94.4004 70.0808 94.4085C73.2439 94.4566 76.407 94.4325 79.5701 94.4325C85.569 94.4325 85.569 94.4325 84.9537 88.0747C83.6483 91.0066 81.2779 91.5689 78.5171 91.3882Z" fill="#FDF7F8"/>
<path d="M70.6836 73.178C71.8708 73.0817 72.3874 72.182 72.0206 71.1016C71.5158 69.6316 72.0404 68.4588 73.0224 66.7358C70.2458 67.4989 69.0271 68.9006 68.8536 71.1498C68.7589 72.3748 69.3466 73.2865 70.6836 73.178Z" fill="#FDF7F8"/>
<path d="M46.7567 55.8286C46.8321 55.7276 46.9075 55.6266 46.9829 55.5215C46.971 55.5781 46.9829 55.6629 46.9472 55.6912C46.8837 55.7397 46.7964 55.7599 46.7171 55.7882C46.7131 55.7882 46.7567 55.8286 46.7567 55.8286Z" fill="#160204"/>
<path d="M112.992 12.307C112.988 4.51125 108.67 0.0290084 101.066 0.0249921C71.3121 -0.00312235 41.5545 -0.00312235 11.8008 0.0249921C4.37423 0.0290084 0.0160916 4.54338 0.00820355 12.1021C-0.00757251 27.2558 0.00425954 42.4095 0.00425954 57.5631C0.00425954 72.6204 -0.00362849 87.6737 0.00820355 102.731C0.0121476 110.539 4.28352 114.981 11.8876 114.985C41.5466 115.005 71.2056 115.005 100.865 114.985C108.705 114.981 112.988 110.599 112.992 102.643C113.004 72.5321 113.004 42.4175 112.992 12.307ZM59.5313 26.0107C60.8722 25.9023 61.6768 26.569 61.9332 27.8824C61.8701 29.2921 61.1365 30.1275 59.8271 30.1797C58.6044 30.2319 57.8985 29.3925 57.8038 28.1996C57.7052 26.9907 58.2337 26.1192 59.5313 26.0107ZM51.6393 48.6308C52.7594 45.2169 54.1319 41.8914 55.3782 38.5257C55.6701 37.7385 56.4037 36.8348 55.6583 36.0958C54.9247 35.3728 54.337 36.4372 53.6784 36.6942C53.2169 36.875 52.7121 37.0597 52.3926 36.5617C52.0968 36.0998 52.3216 35.6098 52.6884 35.2604C53.3116 34.6619 53.9268 34.0354 54.6328 33.5494C56.0566 32.5654 57.6105 31.3444 59.3144 32.6859C61.0537 34.0515 59.835 35.7423 59.267 37.2003C58.0444 40.337 56.7034 43.4296 55.394 46.5302C55.0627 47.3174 54.4474 48.1207 55.4058 48.8557C56.5338 49.7192 56.7508 48.2292 57.4488 47.9721C58.7306 47.5062 59.5826 44.7149 60.5686 45.8957C61.7991 47.3656 59.3577 48.4942 58.3796 49.671C57.1807 51.1089 55.7569 52.2415 53.7572 52.2535C51.6748 52.2575 50.8466 51.0567 51.6393 48.6308ZM46.9775 55.5228C46.9657 55.5791 46.9775 55.6634 46.942 55.6915C46.9025 55.7237 46.8552 55.7397 46.8039 55.7558C46.8631 55.6795 46.9223 55.6032 46.9775 55.5228ZM16.4626 55.8843C19.6967 56.3904 20.4027 54.8882 20.3199 51.7716C20.099 43.273 20.241 34.7624 20.2449 26.2598C20.2449 24.9946 20.3672 23.7174 19.1012 22.4081C24.3191 22.4081 29.1584 22.1791 33.9662 22.4884C37.2949 22.7013 39.8546 25.6613 40.458 29.031C41.0378 32.2642 39.8349 34.6218 36.4627 36.6581C35.4333 37.2766 34.258 37.9353 36.1551 38.6743C40.5093 40.3732 41.4046 43.9718 41.5624 48.0846C41.6018 49.0605 41.5939 50.0405 41.6767 51.0165C41.9804 54.5951 43.1912 55.7598 46.6422 55.8241C42.2447 58.3062 37.7761 56.2819 36.9794 51.3418C36.6047 49.0324 36.585 46.6668 36.2458 44.3494C35.5398 39.5217 30.5664 36.7826 26.1965 38.6944C25.2578 39.104 25.2972 39.8591 25.2933 40.6262C25.2815 45.0241 25.3051 49.426 25.2854 53.8239C25.2696 57.2017 28.0935 55.069 29.4976 56.2337C24.9659 56.6354 20.592 56.4185 16.0761 56.3582C16.293 56.0851 16.3956 55.8723 16.4626 55.8843ZM36.9518 89.2601C36.5968 87.0511 36.3326 84.8301 36.0723 82.6091C35.5004 77.7011 30.8267 74.8937 26.2635 76.693C25.313 77.0665 25.2972 77.8015 25.2933 78.5767C25.2775 83.0669 25.3485 87.5612 25.2617 92.0515C25.2065 94.9272 27.4546 93.7102 29.048 94.3368C24.3822 94.3368 20.0477 94.3368 15.6699 94.3368C15.7369 94.0275 15.7567 93.7223 15.8158 93.7142C20.2371 93.0355 20.2371 93.0355 20.2371 88.3083C20.2371 80.4965 20.1345 72.6807 20.2923 64.8729C20.3514 62.0052 19.819 60.3063 16.577 60.8766C16.2733 60.9288 15.7882 61.0292 15.662 60.2179C21.6687 60.2179 27.6597 59.9006 33.5954 60.3384C37.0425 60.5915 39.5509 63.1418 40.3121 66.7124C41.0812 70.315 39.4365 72.9377 36.2655 74.5965C35.6503 74.9178 35.177 75.3756 34.8299 76.211C39.4286 77.5364 41.3691 80.7174 41.4164 85.533C41.448 88.5693 41.4283 91.7864 43.9248 94.3288C39.8546 94.7344 37.5513 92.9953 36.9518 89.2601ZM63.8066 81.7375C62.7023 83.0669 61.878 84.6815 60.3359 85.5932C59.3183 86.1957 58.2022 86.7298 57.1097 85.9346C56.1591 85.2398 56.1237 84.1031 56.2656 82.9986C56.3603 82.2436 56.7508 81.5046 56.2223 80.2796C54.546 82.3801 53.0394 84.1473 51.0517 85.3362C49.5332 86.2439 47.8412 86.9989 46.2242 85.7539C44.686 84.569 44.8083 82.605 45.4157 81.1551C48.1607 74.5844 52.4794 69.568 59.5471 67.6401C60.2767 67.4393 61.0616 67.5116 61.6571 66.8971C62.2014 66.3348 62.8324 65.6842 63.5936 66.4995C64.2286 67.1823 63.8263 67.9655 63.5147 68.6804C62.0476 72.0782 60.8131 75.5564 60.044 79.1911C59.8507 80.1069 59.2868 81.2234 60.4621 81.7656C61.4205 82.2074 61.9845 81.2355 62.5682 80.621C63.0809 80.0828 63.5818 78.9743 64.3272 79.5366C65.2974 80.2675 64.2838 81.1632 63.8066 81.7375ZM79.5669 94.4292C76.4038 94.4292 73.2407 94.4533 70.0776 94.4051C69.3755 94.393 68.3422 94.8187 68.0661 93.8508C67.8177 92.9793 68.8786 92.6539 69.3598 92.0957C70.1052 91.2362 71.0872 90.8667 72.2113 91.1197C74.3016 91.5936 76.4156 91.2482 78.5138 91.3848C81.2746 91.5655 83.6489 91.0072 84.9505 88.0673C85.5657 94.4292 85.5657 94.4292 79.5669 94.4292ZM72.022 71.1062C72.3927 72.1826 71.8721 73.0863 70.685 73.1827C69.3479 73.2911 68.7563 72.3794 68.851 71.1544C69.0245 68.9053 70.2432 67.5036 73.0198 66.7405C72.0417 68.4635 71.5171 69.6363 72.022 71.1062ZM78.3442 66.2465C85.546 67.0015 86.0351 74.8013 83.1599 79.3438C81.1248 82.5609 78.3482 85.0791 75.0983 87.2921C79.839 80.7736 84.0394 74.2631 78.3442 66.2465ZM91.2846 94.397C92.4559 93.658 92.4362 92.2885 92.4362 90.9229C92.4323 84.8783 92.4165 78.8297 92.4441 72.7851C92.452 70.7287 92.5821 68.6603 89.4703 70.1704C90.8113 69.1101 92.1286 68.0177 93.505 67.0015C94.0769 66.5758 94.5147 65.5757 95.3903 66.0216C96.2067 66.4393 95.9306 67.4032 95.9345 68.1542C95.9503 75.468 95.9267 82.7818 95.9622 90.0955C95.97 91.5776 95.5875 93.1961 96.8772 94.397C94.9052 94.397 93.0002 94.397 91.2846 94.397ZM88.8511 49.7032C88.7643 48.3416 88.7091 46.9761 88.5671 45.6185C87.9045 39.3771 85.195 38.128 79.3933 38.2124C77.9419 38.2325 77.3267 38.9233 77.3306 40.3772C77.3543 44.8675 77.378 49.3577 77.3148 53.848C77.2951 55.4305 77.9893 55.8763 79.4052 55.8361C80.2058 55.816 81.0932 55.5228 82.0634 56.3261C77.445 56.3261 73.0632 56.3261 68.5828 56.3261C68.6893 56.1213 68.7563 55.9164 68.7958 55.9245C72.018 56.3623 72.7161 54.836 72.6254 51.7475C72.3967 44.0441 72.5505 36.3247 72.5505 28.6133C72.5505 23.4764 72.5505 23.4764 68.0504 22.3398C73.8796 22.3398 79.7089 22.2153 85.5302 22.388C89.0246 22.4924 91.9945 25.328 92.6452 28.6173C93.2842 31.8545 91.9117 35.0395 88.8235 36.6741C86.9659 37.6581 87.4549 38.2044 88.8945 38.7988C92.5033 40.2888 93.7693 43.2168 93.8324 46.9238C93.8442 47.6066 93.8008 48.3055 93.927 48.9682C94.5147 52.0206 93.5405 56.1213 99.0109 55.9727C92.7202 58.1897 89.2416 55.8321 88.8511 49.7032Z" fill="#DE0E27"/>
<path d="M31.146 61.2327C27.1349 59.6623 25.2852 60.8793 25.2812 65.0924C25.2812 66.0684 25.2813 67.0403 25.2852 68.0163C25.2891 69.8679 25.2812 71.7194 25.2931 73.5669C25.301 74.3581 25.3562 75.0489 26.3461 75.3662C29.8169 76.4707 33.6386 74.8521 34.7193 71.7234C36.2693 67.2653 34.6877 62.6183 31.146 61.2327Z" fill="#DE0E27"/>
<path d="M78.6724 22.9687C76.2705 23.7801 77.6706 25.9449 77.3669 27.4871C77.1855 28.4229 77.3314 29.427 77.3354 30.399C77.3354 32.0537 77.4182 33.7085 77.3156 35.3552C77.2091 37.0862 77.7929 37.8091 79.5795 37.769C82.2141 37.7087 85.0025 37.8132 86.3277 35.0218C87.8028 31.9091 87.7436 28.5595 86.095 25.4709C84.971 23.3543 81.1689 22.1213 78.6724 22.9687Z" fill="#DE0E27"/>
<path d="M25.2857 30.4273C25.2897 32.1784 25.3409 33.9335 25.2739 35.6807C25.2187 37.1667 25.7945 37.6848 27.2735 37.7651C32.2587 38.0383 35.0274 35.8252 35.2089 31.2225C35.4297 25.6799 33.1304 23.0492 28.0386 22.8685C26.1731 22.8042 25.1122 23.3143 25.2621 25.4671C25.3764 27.1138 25.2857 28.7725 25.2857 30.4273Z" fill="#DE0E27"/>
<path d="M56.2426 70.6835C52.7995 71.7037 48.9659 76.957 48.8516 80.7003C48.8752 81.4674 48.7254 82.3309 49.5773 82.7607C50.4844 83.2185 51.289 82.7245 51.9752 82.2144C55.0042 79.9693 56.8382 76.7482 58.6722 73.5351C59.1533 72.6917 59.741 71.6836 58.9837 70.8723C58.2817 70.1292 57.1419 70.4184 56.2426 70.6835Z" fill="#DE0E27"/>
</g>
<defs>
<clipPath id="clip0">
<rect width="113" height="115" fill="white"/>
</clipPath>
</defs>
</svg>
