<svg width="168" height="121" viewBox="0 0 168 121" fill="none" xmlns="http://www.w3.org/2000/svg">
<g style="mix-blend-mode:darken">
<g clip-path="url(#clip0)">
<path d="M145.034 45.151C141.771 33.061 135.434 22.8659 125.893 14.7031C115.986 6.22966 104.492 1.40588 91.4699 0.206297C90.9401 0.157906 90.3873 0.247047 89.8806 0C87.4108 0 84.9385 0 82.4687 0C82.415 0.152813 82.2819 0.109516 82.1744 0.117156C80.2012 0.259781 78.2381 0.478813 76.2854 0.804813C65.6411 2.57235 56.1434 6.86129 47.7769 13.636C46.9477 14.3058 46.1517 15.0164 45.2432 15.7906C45.517 15.7906 45.6501 15.8059 45.7755 15.7881C48.9542 15.3424 52.1355 14.8992 55.3116 14.4408C55.8465 14.3644 56.3942 14.3873 56.8907 14.0715C58.6592 12.9534 60.4917 11.9449 62.383 11.0407C69.5287 7.62026 77.0788 5.84763 84.9948 5.64388C89.338 5.53182 93.6428 5.93932 97.8836 6.8944C110.89 9.82076 121.522 16.5114 129.758 26.9307C134.244 32.6026 137.407 38.9596 139.304 45.9304C139.432 46.399 139.614 46.5442 140.105 46.4652C141.595 46.2258 143.087 46.017 144.584 45.8387C145.088 45.7776 145.16 45.6171 145.034 45.151Z" fill="#01AFEB"/>
<path d="M132.216 99.2667C129.619 99.6284 127.021 100.005 124.421 100.347C123.886 100.418 123.484 100.629 123.103 100.996C122.555 101.523 121.966 102.012 121.375 102.494C110.559 111.291 98.1645 115.498 84.2008 115.101C78.6982 114.943 73.3492 113.921 68.1588 112.106C59.9843 109.245 52.8566 104.735 46.7986 98.5689C46.5657 98.332 46.3405 98.2607 46.0206 98.3066C43.9501 98.602 41.8796 98.8873 39.8065 99.1725C39.7784 99.2515 39.7502 99.3304 39.7246 99.4094C53.6756 114.749 70.9332 122.288 91.8532 120.49C108.297 119.076 121.818 111.721 132.741 99.2642C132.444 99.2642 132.329 99.2515 132.216 99.2667Z" fill="#01AFEB"/>
<path d="M116.27 37.7373C116.687 36.6014 116.981 35.4324 117.171 34.2379C117.227 33.8814 117.24 33.6445 116.715 33.777C115.978 33.9654 115.215 34.0495 114.465 34.1845C111.52 34.7117 108.576 35.2465 105.631 35.761C105.277 35.8221 105.157 35.9316 105.144 36.306C105.111 37.3171 105.052 38.3308 104.934 39.3342C104.497 43.045 103.342 46.5062 101.162 49.5854C99.7594 51.5643 98.0421 53.2198 95.9844 54.5544C96.0791 54.5365 96.1763 54.5314 96.2659 54.5034C99.4446 53.556 102.503 52.3309 105.339 50.5965C110.399 47.5021 114.209 43.3557 116.27 37.7373Z" fill="#01AFEB"/>
<path d="M167.858 86.5199C167.497 85.5062 166.731 85.0121 165.7 84.8848C165.418 84.8491 165.129 84.8797 164.83 84.8797C164.843 84.5868 165.017 84.4416 165.127 84.2684C165.636 83.4611 166.156 82.6588 166.683 81.8642C166.936 81.4796 166.693 81.1103 166.673 80.7359C166.667 80.6111 166.478 80.6519 166.365 80.6671C164.855 80.8811 163.345 81.1001 161.835 81.3166C161.741 81.3293 161.582 81.3395 161.569 81.3854C161.441 81.8132 161.608 82.2309 161.692 82.6359C161.746 82.8982 162.071 82.7454 162.26 82.7225C163.184 82.6079 164.108 82.4652 165.122 82.3226C165.006 82.5315 164.953 82.6486 164.881 82.7581C164.405 83.4942 163.942 84.2404 163.443 84.9612C163.192 85.3229 163.266 85.6947 163.407 86.0156C163.55 86.3391 163.896 86.1098 164.136 86.0793C164.507 86.0309 164.876 85.9952 165.247 86.0131C165.969 86.0462 166.429 86.4129 166.611 87.0777C166.806 87.7933 166.588 88.4479 165.992 88.8121C165.401 89.1763 164.756 89.2629 164.07 89.1305C163.565 89.0311 163.13 88.779 162.659 88.5116C162.58 88.8146 162.544 89.0897 162.434 89.3317C162.227 89.7799 162.391 89.9786 162.813 90.1645C164.968 91.1119 166.872 90.4625 168.001 88.3689C168.001 87.8239 168.001 87.2763 168.001 86.7313C167.855 86.7262 167.886 86.5988 167.858 86.5199Z" fill="#242021"/>
<path d="M135.458 79.4346C137.49 79.1239 139.528 78.8514 141.562 78.5611C142.269 78.4617 142.445 78.0721 142.071 77.4379C142.002 77.3207 141.9 77.2265 141.813 77.1195C140.034 74.9903 138.256 72.8637 136.479 70.7345C136.326 70.5511 136.111 70.4136 136.4 70.1182C138.432 68.0603 139.136 65.5643 138.836 62.7322C138.355 58.1886 134.66 54.8904 130.02 54.9515C129.648 54.977 129.216 54.977 128.789 55.0356C125.2 55.5297 121.615 56.039 118.027 56.5306C117.735 56.5713 117.627 56.6477 117.673 56.9661C118.037 59.4518 118.382 61.9401 118.735 64.4284C119.511 69.9042 120.294 75.38 121.054 80.8583C121.118 81.3295 121.287 81.4161 121.727 81.3499C123.488 81.085 125.254 80.838 127.02 80.6164C127.491 80.5578 127.56 80.3795 127.491 79.9466C127.174 77.8861 126.897 75.8206 126.588 73.7602C126.526 73.345 126.605 73.1719 127.071 73.1388C127.793 73.0878 128.512 72.9732 129.221 72.8382C129.633 72.7618 129.889 72.8433 130.158 73.1897C131.701 75.1788 133.278 77.145 134.841 79.1214C135.003 79.3251 135.125 79.4856 135.458 79.4346ZM129.915 66.988C128.668 67.0823 127.435 67.3217 126.198 67.5127C125.876 67.5611 125.702 67.528 125.651 67.1434C125.423 65.3682 125.177 63.5931 124.911 61.823C124.855 61.4461 124.975 61.3671 125.318 61.3238C126.503 61.1812 127.698 61.0793 128.86 60.8246C131.253 60.3 132.487 62.1286 132.507 63.9598C132.51 65.8012 131.414 66.8734 129.915 66.988Z" fill="#242021"/>
<path d="M15.015 41.2033C13.5766 41.1625 12.1716 41.4784 10.7562 41.6694C8.11757 42.0234 5.48401 42.408 2.84278 42.7518C2.35906 42.8155 2.27205 42.9938 2.34115 43.4496C2.66106 45.5279 2.94259 47.6138 3.23691 49.6971C3.76414 53.4385 4.2888 57.1798 4.81602 60.9212C5.10011 62.946 5.38932 64.9707 5.67084 66.9955C5.71947 67.3393 5.77066 67.5202 6.2339 67.4488C8.05103 67.161 9.87583 66.9318 11.7006 66.695C12.0487 66.6491 12.1972 66.5702 12.1306 66.1525C11.8491 64.3442 11.6187 62.5257 11.3526 60.7149C11.3116 60.4398 11.2988 60.3049 11.6495 60.2616C13.0085 60.0935 14.3598 59.8643 15.7214 59.6987C20.5406 59.118 23.7014 55.5753 23.6988 50.5758C23.686 49.8907 23.5913 49.063 23.407 48.2403C22.4806 44.1093 19.1662 41.3179 15.015 41.2033ZM16.7118 52.9087C16.3458 53.4767 15.834 53.8536 15.1583 53.9555C13.766 54.1643 12.3712 54.3401 10.9789 54.5515C10.6308 54.605 10.4747 54.5744 10.421 54.1592C10.1522 52.0963 9.84768 50.0384 9.54056 47.9805C9.49961 47.7029 9.57383 47.596 9.84768 47.5603C11.3193 47.3642 12.7858 47.1197 14.2625 46.9694C15.3528 46.8599 16.1232 47.461 16.6606 48.3498C17.1034 49.0808 17.2928 49.8907 17.2902 50.7388C17.2928 51.5156 17.1367 52.2491 16.7118 52.9087Z" fill="#242021"/>
<path d="M53.016 57.9697C54.9381 59.5666 57.2031 60.1727 59.5961 60.2186C61.9558 60.1931 64.1287 59.6812 66.0738 58.4358C69.1117 56.4925 70.6192 53.7699 70.1226 50.1278C69.3907 44.7641 68.6178 39.4029 67.873 34.0418C67.832 33.7514 67.7194 33.6903 67.4558 33.7285C65.6745 33.9883 63.8907 34.2506 62.1068 34.4875C61.7639 34.5333 61.6666 34.5995 61.7203 34.9816C62.4805 40.2434 63.2176 45.5104 63.9649 50.7747C64.1031 51.7527 63.86 52.6009 63.1126 53.2605C61.8995 54.3353 60.4663 54.6435 58.9 54.3327C57.4053 54.0373 56.5812 53.2147 56.3739 51.8597C56.1973 50.7034 56.0489 49.5446 55.8851 48.3883C55.3041 44.2802 54.718 40.1746 54.1498 36.064C54.1038 35.7202 54.0398 35.6132 53.6584 35.6718C51.9949 35.929 50.3262 36.148 48.6601 36.3798C47.9178 36.4817 47.9255 36.4817 48.033 37.2305C48.7727 42.4363 49.5046 47.6446 50.2468 52.8505C50.5335 54.893 51.4062 56.6326 53.016 57.9697Z" fill="#242021"/>
<path d="M68.7638 85.8802C69.2424 86.6367 69.7517 87.3778 70.2277 88.1368C70.3941 88.3991 70.563 88.5061 70.8906 88.4577C72.5567 88.2081 74.2254 87.9865 75.8915 87.7496C76.7924 87.6223 76.9408 87.2785 76.4648 86.4609C76.3855 86.3259 76.2985 86.196 76.214 86.0661C71.6814 79.0852 67.1335 72.1118 62.6341 65.1079C62.1299 64.3234 61.6744 63.8803 60.7146 64.219C60.3896 64.3336 60.0211 64.3565 59.6704 64.3591C59.2584 64.3616 59.1125 64.5577 58.9999 64.927C56.4994 73.2146 53.9887 81.4971 51.4805 89.7795C51.4242 89.9629 51.3884 90.1539 51.373 90.215C51.4063 91.1446 51.4089 91.1548 52.1946 91.0504C53.9222 90.8186 55.6446 90.5665 57.3721 90.3424C57.6818 90.3016 57.797 90.1513 57.8763 89.8814C58.1195 89.0409 58.3959 88.2106 58.6313 87.3676C58.7158 87.062 58.8668 86.9321 59.1816 86.8888C62.2067 86.4787 65.2319 86.0611 68.2544 85.6281C68.5155 85.5924 68.6332 85.6739 68.7638 85.8802ZM60.3282 81.1761C59.9775 81.2245 60.1439 80.9698 60.1823 80.8323C60.5688 79.4061 60.9603 77.9824 61.3519 76.5561C61.5413 75.8684 61.7307 75.1833 61.9508 74.376C63.2253 76.4211 64.4462 78.3797 65.7207 80.4197C63.8473 80.6846 62.089 80.9393 60.3282 81.1761Z" fill="#242021"/>
<path d="M49.5964 60.1496C47.7051 57.2639 45.8138 54.3758 43.925 51.4902C41.1378 47.2344 38.3507 42.976 35.5636 38.7176C35.4075 38.4782 35.3051 38.2082 34.9007 38.2897C34.2686 38.4196 33.6287 38.5164 32.9864 38.5724C32.5948 38.6055 32.4412 38.7609 32.3286 39.1353C29.8179 47.3566 27.2893 55.5703 24.7658 63.7865C24.7095 63.9699 24.6608 64.1583 24.625 64.2755C24.6378 65.1643 24.6736 65.2 25.4696 65.0905C27.1767 64.8562 28.8786 64.6015 30.5883 64.3901C30.9466 64.3468 31.0873 64.2067 31.1795 63.8858C31.4072 63.081 31.6785 62.2889 31.9089 61.4867C32.0036 61.1556 32.1392 60.9722 32.5334 60.9442C33.1962 60.8958 33.8514 60.7659 34.5117 60.6717C36.7972 60.3508 39.0853 60.0375 41.3707 59.7013C41.7726 59.6427 42.0131 59.7471 42.2256 60.0961C42.6479 60.7965 43.1316 61.4612 43.5539 62.159C43.7356 62.4596 43.9454 62.5309 44.273 62.4825C45.9571 62.238 47.6462 62.0088 49.3303 61.7719C50.1211 61.6598 50.2696 61.3721 49.9113 60.6386C49.8242 60.4679 49.7039 60.31 49.5964 60.1496ZM33.3907 55.3054C34.0254 53.0259 34.6346 50.8331 35.2795 48.5129C36.5694 50.5657 37.7851 52.4987 39.052 54.5159C37.135 54.7833 35.3 55.038 33.3907 55.3054Z" fill="#242021"/>
<path d="M49.1886 65.8698C47.4457 66.1244 45.7002 66.3715 43.9522 66.5854C43.5555 66.6338 43.3917 66.7892 43.2996 67.1636C42.4038 70.8107 41.4901 74.4553 40.5816 78.0999C40.2975 79.2409 40.0083 80.3819 39.7165 81.5509C39.435 81.4159 39.3761 81.1994 39.2712 81.0262C36.8884 77.0022 34.498 72.9832 32.1383 68.9438C31.8465 68.4447 31.565 68.2944 30.9892 68.3912C29.4664 68.6535 27.9308 68.8471 26.3977 69.0483C25.5506 69.1603 25.4508 69.2953 25.7374 70.1078C25.7886 70.2529 25.8807 70.3828 25.9626 70.5153C26.7432 71.7734 27.5264 73.0316 28.3095 74.2897C32.059 80.3131 35.8135 86.3339 39.5553 92.3624C39.7421 92.6654 39.9136 92.8004 40.2949 92.7164C40.8477 92.5941 41.4159 92.5126 41.9815 92.4821C42.4268 92.4591 42.6034 92.2885 42.7237 91.8581C44.9964 83.6852 47.2896 75.5199 49.5853 67.352C49.6928 66.9675 49.7107 66.6058 49.6672 66.2085C49.6262 65.857 49.506 65.8239 49.1886 65.8698Z" fill="#242021"/>
<path d="M151.544 76.75C151.59 77.0811 151.718 77.1651 152.038 77.1193C153.799 76.8621 155.559 76.587 157.328 76.3884C157.919 76.3221 157.94 76.0674 157.873 75.609C157.451 72.7183 157.054 69.8251 156.619 66.9369C156.514 66.2467 156.56 65.6329 156.86 64.9733C158.861 60.5646 160.821 56.1381 162.792 51.7168C162.884 51.5079 163.028 51.3016 162.956 51.0597C162.923 50.2905 162.871 50.26 162.145 50.3644C160.266 50.6343 158.387 50.8992 156.506 51.1488C156.11 51.2023 155.872 51.3169 155.713 51.7473C154.743 54.3935 153.727 57.0219 152.724 59.6579C152.657 59.8337 152.657 60.0909 152.44 60.1291C152.209 60.1698 152.145 59.905 152.035 59.7598C150.326 57.4803 148.621 55.1983 146.922 52.9113C146.753 52.6846 146.612 52.519 146.264 52.57C144.349 52.8578 142.43 53.1176 140.51 53.385C139.704 53.497 139.517 53.9682 140.006 54.6533C140.052 54.717 140.106 54.773 140.157 54.8316C143.356 58.6468 146.551 62.4671 149.757 66.2747C150.036 66.6058 150.18 66.9496 150.236 67.3699C150.668 70.5025 151.116 73.625 151.544 76.75Z" fill="#242021"/>
<path d="M85.5196 80.1147C84.6673 74.02 83.8023 67.9304 82.9475 61.8358C82.9065 61.5505 82.8656 61.4359 82.5252 61.4868C80.6492 61.767 78.7681 62.0268 76.8844 62.2738C76.5287 62.3197 76.4365 62.4419 76.4877 62.7959C76.7795 64.7596 77.0482 66.7283 77.3272 68.6945C78.1743 74.6695 79.024 80.647 79.866 86.6245C79.9172 86.9862 79.9198 87.3402 80.4009 87.1033C80.5443 87.0906 80.6415 87.0855 80.7388 87.0728C85.5068 86.4081 90.2748 85.7382 95.0429 85.0862C95.4703 85.0276 95.4242 84.801 95.3833 84.5208C95.1632 83.0181 94.9482 81.5155 94.7255 80.0128C94.6155 79.2615 94.6104 79.2666 93.8272 79.3787C91.2116 79.7505 88.5959 80.1147 85.9828 80.4967C85.6373 80.5477 85.5631 80.4331 85.5196 80.1147Z" fill="#242021"/>
<path d="M72.3906 33.4714C73.5218 41.4126 74.6479 49.3537 75.7586 57.2949C75.8124 57.6769 75.9531 57.7177 76.291 57.6718C81.1716 56.9765 86.0523 56.2889 90.938 55.614C91.2836 55.5656 91.4755 55.4993 91.3347 55.2039C91.0993 53.5382 90.8638 51.9592 90.6616 50.375C90.6104 49.9726 90.5209 49.8427 90.0576 49.9115C87.3499 50.319 84.6318 50.673 81.9215 51.0627C81.5939 51.1111 81.4711 51.0398 81.4276 50.7138C81.0385 47.8791 80.6367 45.0444 80.2375 42.2123C79.7921 39.0516 79.3391 35.8909 78.9092 32.7277C78.8452 32.2591 78.6942 32.1496 78.2105 32.2285C76.3959 32.5188 74.5737 32.7659 72.7489 33.0002C72.3931 33.041 72.3445 33.1505 72.3906 33.4714Z" fill="#242021"/>
<path d="M99.1587 78.1302C98.8004 78.1786 98.7364 78.2729 98.7901 78.6294C99.0282 80.1677 99.2201 81.7137 99.4377 83.2545C99.5426 84.0084 99.5503 83.9931 100.349 83.8785C103.041 83.4939 105.734 83.1221 108.426 82.7452C110.983 82.3886 113.54 82.0346 116.096 81.6755C116.299 81.6475 116.565 81.6602 116.506 81.3164C116.268 79.6609 116.009 78.0054 115.802 76.3449C115.748 75.9068 115.631 75.81 115.196 75.8737C112.777 76.2328 110.353 76.5588 107.932 76.9001C105.009 77.3127 102.087 77.7329 99.1587 78.1302Z" fill="#242021"/>
<path d="M96.817 64.6779C96.8553 64.9657 97.0166 64.8944 97.1906 64.8715C97.81 64.7849 98.4293 64.7009 99.0513 64.6143C103.643 63.9776 108.232 63.3332 112.823 62.7143C113.294 62.6506 113.317 62.452 113.258 62.0674C113.023 60.5291 112.792 58.9882 112.6 57.4448C112.549 57.0373 112.406 56.9813 112.043 57.0373C110.497 57.2716 108.946 57.483 107.397 57.6995C103.737 58.2089 100.075 58.7208 96.4151 59.2225C96.1771 59.2556 96.044 59.327 96.0901 59.5052C96.3409 61.2855 96.5866 62.9817 96.817 64.6779Z" fill="#242021"/>
<path d="M112.564 66.3719C107.681 67.0723 102.798 67.7701 97.9094 68.4298C97.395 68.4986 97.372 68.6921 97.4308 69.0894C97.6663 70.6507 97.9018 72.2094 98.0988 73.7757C98.1526 74.1985 98.2396 74.42 98.6132 74.2468C99.0125 74.1883 99.3222 74.1399 99.6319 74.0966C104.246 73.4548 108.861 72.8079 113.48 72.1813C113.941 72.1202 114.041 71.9623 113.969 71.5242C113.726 70.0063 113.483 68.4833 113.319 66.9552C113.263 66.3872 113.066 66.3006 112.564 66.3719Z" fill="#242021"/>
<path d="M73.6136 95.057C73.414 93.6766 73.4088 93.6842 72.014 93.8905C71.6736 93.9414 71.4817 94.056 71.3665 94.4228C70.7215 96.4348 70.0356 98.4367 69.3293 100.545C69.1629 100.326 69.0528 100.194 68.9556 100.054C67.9907 98.6582 66.967 97.2957 66.0917 95.8465C65.5901 95.0162 65.0577 94.787 64.1236 94.9831C63.5528 95.1028 63.4479 95.2658 63.5272 95.7905C63.9367 98.5462 64.3206 101.304 64.7045 104.063C64.7429 104.348 64.8223 104.498 65.1447 104.424C65.3341 104.381 65.5338 104.343 65.7257 104.348C66.2555 104.363 66.2939 104.091 66.2248 103.653C65.9842 102.132 65.759 100.612 65.5645 99.0861C65.503 98.6098 65.3469 98.131 65.4365 97.5402C65.6054 97.7796 65.7155 97.9324 65.823 98.0903C66.8365 99.57 67.8474 101.052 68.8635 102.532C68.9658 102.68 69.0119 102.912 69.2806 102.868C69.7669 102.787 70.3172 102.825 70.3709 102.104C70.3888 101.86 70.5219 101.623 70.6012 101.383C71.1233 99.8069 71.648 98.2304 72.1752 96.6411C72.3749 96.7506 72.3288 96.9034 72.3467 97.0282C72.6026 98.8009 72.8483 100.576 73.1145 102.349C73.2604 103.314 73.2706 103.283 74.2432 103.164C74.6629 103.113 74.7474 102.975 74.6885 102.583C74.3174 100.072 73.9744 97.5631 73.6136 95.057Z" fill="#242021"/>
<path d="M95.0742 91.8307C94.9105 90.6719 94.9156 90.677 93.7843 90.8476C93.4593 90.896 93.3211 90.9801 93.3851 91.3595C93.5591 92.3757 93.6794 93.4021 93.8227 94.4234C93.9635 95.4295 94.1043 96.438 94.245 97.4542C92.5098 95.7555 90.7873 94.1127 89.1263 92.4114C88.5735 91.846 88.0668 91.5302 87.2554 91.7543C86.8869 91.8562 86.7333 91.8995 86.7973 92.3325C87.1889 94.971 87.5421 97.6172 87.9183 100.258C88.0591 101.249 88.0719 101.213 89.0751 101.106C89.6049 101.05 89.6791 100.852 89.6024 100.373C89.3004 98.4297 89.0393 96.4813 88.7731 94.6145C90.4546 96.2317 92.195 97.8286 93.8304 99.5223C94.4344 100.149 94.9898 100.373 95.8088 100.162C96.1338 100.078 96.2515 100.009 96.1978 99.642C95.8113 97.0365 95.4454 94.4336 95.0742 91.8307Z" fill="#242021"/>
<path d="M11.2053 34.4745C11.3589 35.5391 11.3717 35.5315 12.508 35.3226C12.7742 35.2742 12.9098 35.2182 12.8535 34.8769C12.6795 33.8403 12.5541 32.7961 12.4107 31.7544C12.2623 30.6822 12.1113 29.6125 11.9475 28.446C12.1395 28.6218 12.2597 28.716 12.3621 28.8255C13.9003 30.4886 15.4717 32.1237 16.951 33.8378C17.4885 34.4592 18.0003 34.6273 18.7656 34.449C19.129 34.365 19.1955 34.2682 19.1444 33.9269C18.7425 31.1712 18.3586 28.4129 17.9671 25.6572C17.8289 24.6767 17.8289 24.7098 16.8256 24.7938C16.3419 24.8346 16.2958 25.0332 16.3598 25.4254C16.5134 26.3678 16.6464 27.3127 16.7795 28.2576C16.9357 29.3604 17.0815 30.4657 17.2325 31.5889C17.015 31.5762 16.9715 31.4514 16.8973 31.3724C15.3437 29.6966 13.7493 28.0564 12.2597 26.327C11.6916 25.6699 11.1439 25.4993 10.3505 25.7005C10.051 25.7769 9.97937 25.8584 10.0203 26.1488C10.4196 28.9198 10.806 31.6984 11.2053 34.4745Z" fill="#242021"/>
<path d="M80.8727 92.6958C77.9448 92.6958 75.713 94.7511 75.7003 97.4636C75.6875 100.163 77.845 102.272 80.6193 102.275C83.5369 102.277 85.7866 100.161 85.7815 97.4203C85.7764 94.7206 83.6726 92.6958 80.8727 92.6958ZM80.6935 100.792C78.8431 100.769 77.3126 99.226 77.3536 97.4228C77.3945 95.5738 78.9481 94.1297 80.8624 94.1628C82.7307 94.1959 84.1486 95.6858 84.1153 97.5833C84.0846 99.3712 82.5465 100.813 80.6935 100.792Z" fill="#242021"/>
<path d="M157.084 88.2084C158.254 87.3246 158.612 85.8729 158.085 84.3677C157.65 83.1223 156.552 82.3913 155.065 82.399C153.532 82.4066 152.037 82.7606 150.522 82.9338C150.223 82.9669 150.187 83.0994 150.228 83.3566C150.358 84.2022 150.468 85.0528 150.586 85.9009C150.87 87.9257 151.157 89.9479 151.433 91.9727C151.472 92.2554 151.561 92.3649 151.881 92.3216C153.087 92.1612 153.089 92.1739 152.946 90.959C152.92 90.7476 152.887 90.5363 152.854 90.3223C152.7 89.3036 152.728 89.4156 153.724 89.1508C154.965 88.8171 155.802 89.1355 156.411 90.2281C157.036 91.3487 157.914 91.8504 159.224 91.1704C158.518 90.3834 157.798 89.5659 157.059 88.7687C156.849 88.5471 156.775 88.4427 157.084 88.2084ZM155.277 87.4265C154.464 87.6226 153.619 87.6863 152.792 87.8315C152.544 87.8748 152.493 87.7805 152.465 87.5691C152.326 86.5478 152.181 85.5265 152.027 84.5078C151.994 84.2939 152.035 84.1869 152.275 84.1589C153.11 84.0595 153.941 83.9424 154.543 83.8634C155.938 83.8609 156.575 84.3601 156.718 85.3814C156.869 86.4383 156.404 87.1565 155.277 87.4265Z" fill="#242021"/>
<path d="M42.5702 29.9635C42.7314 31.1275 42.716 31.1122 43.8831 30.9288C44.1953 30.8804 44.2772 30.7836 44.2312 30.4933C44.1365 29.8973 44.0597 29.2988 43.9778 28.7028C43.8703 27.9388 43.9061 28.0508 44.6279 27.8292C45.9894 27.4116 46.9057 27.8216 47.4918 29.0568C48.0216 30.1749 48.8738 30.4449 49.9999 30.0756C50.0332 30.0654 50.0639 30.045 50.1663 29.9941C49.4318 29.1154 48.7407 28.2724 48.0292 27.4472C47.8168 27.2027 47.7272 27.0499 48.0676 26.8334C48.4336 26.5991 48.687 26.2425 48.8738 25.8478C50.0716 23.3315 48.3696 20.6929 45.5953 20.833C44.4282 20.8916 43.2689 21.1259 42.1069 21.2838C41.334 21.3882 41.3468 21.3907 41.4594 22.165C41.8331 24.7603 42.2067 27.3606 42.5702 29.9635ZM43.4071 22.6056C44.1825 22.5088 44.9555 22.4069 45.5006 22.3356C46.9082 22.328 47.5276 22.8603 47.6633 23.9911C47.7963 25.0863 47.2819 25.8376 46.1763 26.0744C45.4315 26.2324 44.6714 26.3113 43.9189 26.431C43.727 26.4616 43.6476 26.4157 43.6195 26.2069C43.4762 25.127 43.3175 24.0522 43.1614 22.9749C43.1332 22.7686 43.169 22.6336 43.4071 22.6056Z" fill="#242021"/>
<path d="M121.546 95.0651C120.131 95.251 118.715 95.442 117.305 95.6636C116.985 95.7145 116.885 95.6076 116.847 95.3325C116.77 94.7544 116.701 94.1737 116.599 93.5981C116.542 93.2823 116.612 93.1524 116.952 93.1116C118.04 92.9817 119.122 92.8238 120.207 92.6685C121.18 92.5284 121.167 92.5258 121.016 91.5504C120.962 91.204 120.888 91.0741 120.476 91.1429C119.243 91.3517 117.996 91.4791 116.76 91.6726C116.42 91.7261 116.317 91.6166 116.281 91.3135C116.215 90.7532 116.148 90.1904 116.041 89.6377C115.974 89.3015 116.066 89.2174 116.402 89.1741C117.82 89.001 119.23 88.787 120.645 88.5935C120.911 88.5578 121.185 88.5502 121.095 88.27C121.037 87.8854 120.978 87.618 120.96 87.348C120.942 87.1035 120.832 87.073 120.617 87.1035C118.603 87.3913 116.591 87.6766 114.574 87.9491C114.239 87.9949 114.18 88.1452 114.229 88.4508C114.362 89.276 114.472 90.1063 114.587 90.934C114.871 92.9563 115.155 94.981 115.437 97.0033C115.468 97.2325 115.503 97.4108 115.823 97.3624C117.894 97.0567 119.967 96.7664 122.037 96.4684C122.147 96.4531 122.329 96.4913 122.35 96.3665C122.416 95.9361 122.319 95.5031 122.193 95.1058C122.119 94.8843 121.763 95.0371 121.546 95.0651Z" fill="#242021"/>
<path d="M148.936 91.2319C147.487 91.4688 146.029 91.6394 144.577 91.8636C144.191 91.9221 144.063 91.7948 144.025 91.4408C143.963 90.8805 143.892 90.3176 143.787 89.7649C143.718 89.4058 143.874 89.3422 144.181 89.304C145.386 89.1562 146.587 88.9779 147.789 88.8226C148.163 88.7742 148.447 88.7003 148.263 88.2266C148.222 88.1222 148.222 87.9949 148.225 87.8802C148.227 87.4065 148.048 87.2639 147.546 87.3505C146.333 87.5644 145.107 87.7096 143.876 87.8828C143.592 87.977 143.523 87.8293 143.497 87.567C143.444 87.0627 143.413 86.5482 143.275 86.0669C143.111 85.4938 143.359 85.3894 143.851 85.3308C145.21 85.1678 146.564 84.9462 147.923 84.7781C148.268 84.7349 148.358 84.6177 148.26 84.3044C148.227 84.1949 148.222 84.0727 148.225 83.9555C148.232 83.4054 148.004 83.2551 147.441 83.3443C145.606 83.6422 143.764 83.8995 141.921 84.1287C141.481 84.1847 141.365 84.3019 141.429 84.7374C141.839 87.5109 142.233 90.287 142.607 93.0657C142.666 93.5088 142.824 93.5878 143.244 93.5241C145.061 93.2465 146.886 93.0097 148.706 92.7422C149.635 92.6047 149.614 92.5945 149.471 91.6343C149.415 91.2752 149.335 91.1683 148.936 91.2319Z" fill="#242021"/>
<path d="M34.2033 31.7114C34.2673 32.203 34.4259 32.2615 34.8559 32.1953C36.5195 31.9432 38.1882 31.7114 39.8569 31.4898C40.9574 31.3447 40.9446 31.3599 40.7705 30.2953C40.7117 29.9311 40.6144 29.8318 40.2203 29.898C38.8101 30.1298 37.3897 30.2979 35.9769 30.5169C35.68 30.5628 35.6007 30.4634 35.5674 30.2062C35.4855 29.5695 35.4036 28.9302 35.2936 28.2986C35.2321 27.9471 35.3857 27.8835 35.6979 27.8453C36.6884 27.7281 37.6763 27.5829 38.6642 27.4301C39.6419 27.2773 39.6137 27.2697 39.5241 26.2993C39.4832 25.8587 39.2912 25.8103 38.9201 25.8663C37.7582 26.0421 36.5937 26.1974 35.3473 26.3732C35.0786 26.5285 35.0248 26.2967 34.9864 26.037C34.902 25.4385 34.8278 24.8399 34.7203 24.2465C34.6614 23.918 34.7587 23.8059 35.0914 23.7652C36.2175 23.6276 37.341 23.4519 38.4671 23.3042C39.6393 23.1514 39.6265 23.159 39.4269 21.99C39.3783 21.7022 39.2989 21.6512 39.02 21.692C37.1414 21.9671 35.2603 22.2345 33.3766 22.4764C32.9825 22.5274 32.9134 22.6649 32.9671 23.0342C33.3996 25.9249 33.8219 28.8156 34.2033 31.7114Z" fill="#242021"/>
<path d="M71.2695 26.6175C71.3258 27.0352 71.4845 27.0785 71.8275 27.0301C73.5704 26.7805 75.3159 26.5462 77.0588 26.294C77.9955 26.1565 77.9673 26.1463 77.8445 25.2065C77.7856 24.7455 77.6193 24.6615 77.1791 24.7328C75.8072 24.9518 74.4278 25.1148 73.056 25.3237C72.777 25.367 72.6695 25.316 72.6337 25.0384C72.5518 24.3813 72.4596 23.7268 72.3547 23.0722C72.3061 22.7768 72.4315 22.7207 72.6951 22.6851C73.6856 22.5577 74.6709 22.3998 75.6588 22.2623C76.7209 22.112 76.7133 22.1171 76.5776 21.0831C76.5367 20.7698 76.4829 20.6094 76.0785 20.6781C74.9217 20.8768 73.7547 21.0016 72.5927 21.1799C72.2319 21.2359 72.0604 21.157 72.022 20.7724C71.9657 20.1917 71.8735 19.6136 71.7788 19.038C71.7328 18.7553 71.784 18.6381 72.1167 18.5973C73.4962 18.4293 74.868 18.2128 76.2475 18.037C76.552 17.9988 76.68 17.9071 76.6058 17.6652C76.5802 17.4665 76.5469 17.3315 76.5495 17.194C76.5495 16.593 76.3242 16.4529 75.6946 16.5624C73.9415 16.868 72.173 17.0921 70.407 17.3086C70.0104 17.357 69.9796 17.5022 70.0283 17.8307C70.4506 20.7571 70.878 23.686 71.2695 26.6175Z" fill="#242021"/>
<path d="M109.363 88.6998C108.294 88.8424 106.878 89.0385 105.463 89.2194C105.095 89.2678 105.166 89.5021 105.199 89.7313C105.571 92.3342 105.937 94.9371 106.326 97.5349C106.382 97.9068 106.213 98.4594 106.651 98.597C107.001 98.7065 107.452 98.4976 107.859 98.4518C108.102 98.4238 108.061 98.2913 108.038 98.1258C107.938 97.433 107.874 96.7327 107.743 96.045C107.672 95.6681 107.818 95.5738 108.145 95.5331C108.806 95.4567 109.468 95.3828 110.121 95.258C111.462 95.0033 112.588 94.4277 113.011 93.0193C113.717 90.6507 112.202 88.6845 109.363 88.6998ZM110.226 93.7197C109.438 93.9489 108.611 93.9922 107.8 94.1119C107.546 94.1501 107.449 94.061 107.418 93.8139C107.29 92.813 107.16 91.8095 107.004 90.8112C106.96 90.5386 107.04 90.4826 107.285 90.4546C108.04 90.3655 108.793 90.2152 109.55 90.1566C110.774 90.0598 111.575 90.8264 111.577 92.0337C111.58 92.8461 111.114 93.4599 110.226 93.7197Z" fill="#242021"/>
<path d="M52.6984 24.926C53.4176 25.1094 54.1547 25.2113 54.879 25.3819C55.7952 25.5984 56.2508 26.067 56.2099 26.6987C56.1715 27.2895 55.5879 27.7454 54.7178 27.8626C53.497 28.0281 52.4579 27.5723 51.4264 26.8922C51.2908 27.3405 51.1782 27.7684 51.0297 28.1835C50.9632 28.372 51.0246 28.4535 51.1628 28.5681C52.5858 29.7244 55.3294 29.8059 56.8062 28.7234C57.7173 28.0536 58.0347 27.1418 57.876 26.0518C57.7275 25.0305 57.1261 24.3632 56.1587 24.0245C55.8285 23.9073 55.483 23.836 55.14 23.757C54.5309 23.617 53.9013 23.5686 53.3101 23.347C52.7727 23.1458 52.3836 22.8147 52.4169 22.1907C52.4502 21.5642 52.939 21.3451 53.4458 21.2331C54.124 21.0828 54.8048 21.1669 55.4804 21.3273C55.826 21.4088 56.2099 21.7959 56.4837 21.5616C56.7192 21.3604 56.7064 20.8816 56.8267 20.5352C56.9137 20.2805 56.9137 20.1201 56.6091 19.9978C55.1631 19.4248 53.7196 19.3331 52.2813 19.9851C51.1065 20.52 50.587 21.4445 50.697 22.7052C50.7968 23.8436 51.4648 24.6102 52.6984 24.926Z" fill="#242021"/>
<path d="M8.67343 32.0192C8.46612 30.1422 8.15132 28.2779 7.88515 26.4085C7.8698 26.2989 7.90307 26.1054 7.77254 26.113C7.32466 26.1334 6.84862 26.1232 6.44425 26.2786C6.16528 26.3855 6.36747 26.7727 6.40074 27.0248C6.6362 28.7618 6.89981 30.4936 7.13015 32.2306C7.3221 33.6747 6.35211 34.8259 4.91888 34.8946C3.50869 34.9634 2.57197 34.1815 2.35186 32.7272C2.11385 31.1482 1.8963 29.5666 1.66596 27.9875C1.50472 26.8898 1.50216 26.8898 0.422125 27.091C0.36326 27.1012 0.306954 27.1267 0.250649 27.1241C-0.0129628 27.119 -0.0155221 27.2718 0.0151899 27.4705C0.294158 29.3959 0.519379 31.3341 0.859771 33.2494C1.22576 35.2945 2.61804 36.4202 4.60408 36.4177C7.31954 36.4151 8.96775 34.6705 8.67343 32.0192Z" fill="#242021"/>
<path d="M27.2855 32.0956C27.8536 33.1525 27.8485 33.1423 29.0258 33.0099C29.3509 32.9742 29.4814 32.8647 29.553 32.5311C30.0393 30.2669 30.5537 28.0104 31.0579 25.7513C31.2806 24.758 31.4981 23.7622 31.7285 22.7256C31.3087 22.7791 30.9812 22.8427 30.6536 22.858C30.2338 22.8759 30.0624 23.0745 29.9958 23.4795C29.8627 24.2843 29.681 25.0815 29.5172 25.8812C29.1666 27.5901 28.8134 29.2965 28.4551 31.0361C28.2375 30.868 28.1736 30.6591 28.0763 30.4732C27.0782 28.5579 26.08 26.6427 25.0793 24.73C24.5623 23.7418 24.5598 23.7647 23.4362 23.8666C22.9397 23.9099 22.9141 24.0296 23.1419 24.4447C24.5393 26.9865 25.9111 29.541 27.2855 32.0956Z" fill="#242021"/>
<path d="M103.899 90.0445C103.937 89.5045 103.653 89.4689 103.213 89.5326C101.181 89.8306 99.1458 90.098 97.1137 90.3883C96.2103 90.5157 96.218 90.5258 96.3818 91.5115C96.433 91.8171 96.4893 91.9903 96.886 91.9088C97.5539 91.7713 98.2398 91.7152 99.0153 91.6108C99.5118 91.3587 99.4658 91.8222 99.5144 92.1559C99.8215 94.2927 100.116 96.4321 100.426 98.5715C100.559 99.4781 100.569 99.4578 101.503 99.361C102.002 99.31 102.179 99.1547 102.092 98.6097C101.731 96.3226 101.429 94.0278 101.086 91.7382C101.037 91.4147 101.104 91.3001 101.447 91.267C102.166 91.1931 102.877 91.0352 103.597 90.9716C103.998 90.9359 104.039 90.7627 103.965 90.4469C103.937 90.3145 103.891 90.1769 103.899 90.0445Z" fill="#242021"/>
<path d="M61.6008 19.5546C61.5803 20.0538 61.8567 20.0614 62.2304 20.0003C62.8677 19.8959 63.5101 19.8347 64.1422 19.7125C64.4698 19.6488 64.5415 19.7558 64.5824 20.0487C64.887 22.2848 65.2146 24.5159 65.5191 26.7521C65.6778 27.9134 65.6599 27.9083 66.8219 27.7352C67.1162 27.6919 67.2365 27.6002 67.1776 27.2894C67.0983 26.8692 67.0548 26.4439 66.9933 26.0186C66.7041 23.9785 66.42 21.9359 66.118 19.8959C66.0694 19.5597 66.1257 19.4069 66.5071 19.3865C66.9549 19.3636 67.3952 19.2566 67.8405 19.2006C68.9973 19.0579 68.9973 19.063 68.7618 17.9297C68.7542 17.8915 68.7414 17.8533 68.7414 17.8151C68.7414 17.5604 68.5904 17.5604 68.3907 17.5884C66.2051 17.8991 64.0168 18.2047 61.8286 18.5078C61.6059 18.5384 61.437 18.5842 61.4805 18.7396C61.5342 19.0936 61.6085 19.3254 61.6008 19.5546Z" fill="#242021"/>
<path d="M136.446 92.9608C135.404 93.1238 134.355 93.2511 133.313 93.4116C133.006 93.4574 132.855 93.4167 132.817 93.0576C132.727 92.2069 132.589 91.3613 132.469 90.5132C132.256 89.0106 132.052 87.5079 131.824 86.0078C131.798 85.8448 131.906 85.5213 131.524 85.5926C131.253 85.6283 130.982 85.6792 130.711 85.692C130.278 85.7123 130.148 85.8601 130.217 86.3312C130.642 89.1583 131.028 91.9904 131.414 94.8251C131.455 95.1282 131.583 95.1536 131.842 95.1154C133.293 94.899 134.744 94.7054 136.195 94.4915C137.204 94.3412 137.181 94.3335 137.032 93.3403C136.971 92.9302 136.789 92.9073 136.446 92.9608Z" fill="#242021"/>
<path d="M129.328 93.959C128.309 94.1398 127.275 94.2391 126.254 94.4098C125.832 94.4811 125.691 94.4047 125.632 93.9488C125.341 91.654 125.003 89.3619 124.675 87.0697C124.639 86.8124 124.667 86.4661 124.309 86.5883C123.964 86.6418 123.713 86.7157 123.462 86.708C123.035 86.6978 122.963 86.899 123.053 87.2556C123.086 87.3855 123.083 87.5256 123.104 87.6605C123.48 90.3169 123.871 92.9733 124.225 95.6348C124.278 96.0474 124.404 96.1518 124.803 96.0932C126.195 95.8818 127.59 95.6883 128.985 95.5075C130.014 95.375 130.006 95.3928 129.871 94.3919C129.822 94.0557 129.748 93.8851 129.328 93.959Z" fill="#242021"/>
<path d="M139.089 85.748C138.91 84.523 138.9 84.5357 137.666 84.7267C137.395 84.77 137.315 84.8235 137.359 85.124C137.779 88.0122 138.183 90.9054 138.58 93.7961C138.613 94.0355 138.674 94.1654 138.938 94.1196C139.227 94.0763 139.519 93.9973 139.808 93.9973C140.192 93.9948 140.259 93.842 140.207 93.493C139.829 90.9105 139.468 88.328 139.089 85.748Z" fill="#242021"/>
<path d="M59.174 22.6954C59.4401 24.5622 59.7089 26.4291 59.975 28.2934C60.0006 28.4742 59.9443 28.7111 60.2719 28.65C60.597 28.5888 60.9271 28.5404 61.2573 28.4971C61.4671 28.4691 61.59 28.3927 61.5414 28.2246C61.5132 28.0234 61.4953 27.8884 61.4748 27.7535C61.0986 25.0971 60.7121 22.4432 60.3487 19.7868C60.1977 18.6866 60.2207 18.6993 59.0921 18.8852C58.7466 18.9413 58.6416 19.0533 58.6979 19.4048C58.8745 20.5 59.0179 21.5977 59.174 22.6954Z" fill="#242021"/>
<path d="M20.9607 30.043C21.1347 31.2553 21.3215 32.4651 21.4853 33.6774C21.5263 33.9754 21.6082 34.0824 21.9255 33.9958C22.2045 33.9194 22.5039 33.899 22.7931 33.871C23.0209 33.848 23.1003 33.7436 23.0516 33.5602C23.0388 33.466 23.0337 33.41 23.0235 33.3514C22.6319 30.5804 22.2429 27.8094 21.8513 25.0384C21.7233 24.1266 21.7208 24.1623 20.8353 24.2208C20.2492 24.2591 20.1519 24.4908 20.2364 25.0231C20.5051 26.6913 20.7226 28.3697 20.9607 30.043Z" fill="#242021"/>
<path d="M74.8711 14.2242C74.459 14.0994 74.0521 13.9898 73.6554 13.8472C73.3713 13.7453 73.2305 13.8319 73.1128 14.0943C72.8338 14.7132 72.5318 15.3219 72.2119 15.9968C73.6298 15.8669 74.0367 15.5918 74.8711 14.2242Z" fill="#242021"/>
</g>
</g>
<defs>
<clipPath id="clip0">
<rect width="168" height="120.75" fill="white"/>
</clipPath>
</defs>
</svg>
