<?xml version="1.0" standalone="no"?>
<!DOCTYPE svg PUBLIC "-//W3C//DTD SVG 20010904//EN"
 "http://www.w3.org/TR/2001/REC-SVG-20010904/DTD/svg10.dtd">
<svg version="1.0" xmlns="http://www.w3.org/2000/svg"
 width="574.000000pt" height="407.000000pt" viewBox="0 0 574.000000 407.000000"
 preserveAspectRatio="xMidYMid meet">

<g transform="translate(0.000000,407.000000) scale(0.100000,-0.100000)"
fill="#000000" stroke="none">
<path d="M2684 4045 c-310 -47 -597 -157 -845 -323 -120 -81 -247 -184 -233
-189 5 -2 85 8 177 21 150 22 172 27 224 59 227 136 484 224 756 258 140 17
402 7 542 -21 687 -136 1237 -635 1436 -1304 16 -54 29 -100 29 -101 0 -4 170
21 174 26 8 8 -40 179 -77 276 -111 287 -272 530 -494 743 -287 278 -617 452
-1013 535 -110 24 -153 27 -355 30 -163 3 -257 0 -321 -10z"/>
<path d="M2589 3593 c-5 -16 -12 -34 -14 -40 -3 -8 4 -13 18 -13 15 0 29 12
45 40 l23 40 -31 0 c-24 0 -33 -6 -41 -27z"/>
<path d="M2607 3515 c-48 -7 -91 -15 -94 -19 -8 -7 34 -317 44 -327 5 -4 37
-3 73 2 122 16 130 19 130 39 0 27 -7 29 -83 18 -39 -6 -72 -7 -77 -2 -5 5
-10 27 -12 49 l-3 40 70 10 c39 5 69 13 68 18 -2 4 -3 14 -3 23 0 13 -9 14
-56 8 -31 -3 -63 -7 -72 -8 -12 -1 -18 11 -23 44 -4 25 -6 46 -5 47 1 2 35 7
76 13 41 6 76 12 78 14 6 7 -8 46 -16 45 -4 -1 -47 -7 -95 -14z"/>
<path d="M2300 3472 c-70 -11 -105 -21 -104 -29 1 -7 2 -18 3 -24 1 -8 17 -9
50 -5 l50 7 5 -33 c7 -42 36 -247 36 -253 0 -8 24 -5 38 4 11 7 11 28 -3 122
-8 63 -18 126 -21 141 -5 26 -3 27 46 34 45 6 51 9 48 28 -4 27 -19 28 -148 8z"/>
<path d="M2097 3443 c-14 -4 -16 -11 -12 -36 3 -18 14 -92 24 -165 11 -74 21
-136 23 -138 2 -2 14 -1 26 3 19 4 22 11 18 32 -3 14 -13 80 -21 146 -9 66
-18 130 -21 143 -4 22 -6 23 -37 15z"/>
<path d="M1850 3409 c-75 -31 -92 -120 -31 -166 9 -6 41 -15 71 -18 82 -9 100
-19 100 -54 0 -36 -22 -51 -74 -51 -25 0 -40 7 -54 25 -19 24 -62 35 -62 15 0
-5 5 -21 12 -35 33 -74 179 -73 219 1 19 37 13 84 -14 111 -18 19 -41 27 -91
33 -94 12 -119 37 -76 80 30 30 83 27 107 -6 15 -20 25 -25 41 -20 29 9 28 19
-6 57 -21 24 -38 32 -72 35 -25 2 -56 -1 -70 -7z"/>
<path d="M1520 3363 c-19 -3 -38 -8 -42 -11 -4 -4 2 -81 14 -170 l22 -163 25
3 c27 3 28 7 15 86 -5 30 -3 32 23 32 20 0 42 -14 79 -51 46 -46 55 -50 78
-43 l27 9 -51 50 -50 49 31 32 c34 35 40 74 19 124 -22 53 -71 67 -190 53z
m132 -60 c18 -16 24 -58 10 -80 -10 -16 -57 -33 -91 -33 -27 0 -29 3 -36 55
-3 30 -4 59 0 65 10 17 96 12 117 -7z"/>
<path d="M1261 3326 c-41 -6 -76 -15 -77 -21 -2 -5 7 -80 19 -165 l23 -155 44
1 c25 0 71 4 103 8 52 7 57 9 57 33 0 27 -5 27 -126 7 -29 -5 -32 -3 -38 26
-12 64 -10 68 47 75 76 10 87 14 87 37 0 19 -4 20 -74 13 l-75 -7 -6 36 c-11
56 -4 63 74 71 66 7 71 9 71 31 0 28 -9 28 -129 10z"/>
<path d="M1062 3253 c-6 -27 -19 -90 -28 -140 -10 -51 -20 -93 -24 -93 -3 0
-33 56 -68 125 -46 92 -67 125 -80 125 -10 0 -22 -3 -25 -7 -4 -3 30 -77 76
-165 77 -150 83 -158 107 -152 14 3 26 7 28 9 3 3 72 330 72 341 0 2 -11 4
-24 4 -21 0 -26 -7 -34 -47z"/>
<path d="M720 3245 c0 -16 42 -303 46 -317 5 -18 39 -25 47 -10 3 4 -6 79 -19
167 -13 88 -24 161 -24 163 0 4 -50 2 -50 -3z"/>
<path d="M580 3203 c1 -16 7 -71 14 -123 8 -52 13 -96 12 -97 -1 -2 -46 47
-100 107 -74 83 -103 110 -122 110 -30 0 -30 -4 -4 -180 11 -74 20 -141 20
-147 0 -17 39 -17 46 0 2 7 -2 62 -11 122 -8 59 -14 110 -12 112 2 1 47 -47
101 -107 91 -103 124 -127 141 -100 3 5 -4 81 -17 170 -21 154 -23 160 -45
160 -19 0 -23 -5 -23 -27z"/>
<path d="M224 3123 c20 -174 20 -209 -3 -232 -22 -22 -70 -28 -101 -11 -24 13
-36 54 -51 173 -11 92 -13 97 -35 97 -29 0 -29 -5 -9 -141 17 -114 35 -152 81
-174 85 -40 178 10 186 102 2 15 -3 76 -11 136 -14 104 -15 107 -39 107 -24 0
-25 -1 -18 -57z"/>
<path d="M2632 3005 c-46 -7 -85 -15 -86 -17 -5 -6 119 -857 126 -863 6 -6
528 62 535 69 4 4 -25 207 -30 212 -2 2 -64 -5 -138 -16 -74 -11 -143 -20
-155 -20 -19 0 -23 18 -65 323 l-44 322 -30 2 c-17 0 -67 -5 -113 -12z"/>
<path d="M2225 2948 c-38 -5 -74 -13 -78 -18 -5 -4 8 -121 27 -259 40 -283 43
-319 20 -366 -28 -60 -131 -80 -179 -35 -39 37 -52 89 -90 365 -20 142 -37
260 -38 261 -3 3 -221 -27 -225 -31 -5 -4 77 -565 88 -605 17 -60 73 -142 121
-177 71 -51 161 -70 263 -55 138 20 235 84 281 187 40 86 39 126 -5 439 -22
159 -40 293 -40 298 0 10 -52 9 -145 -4z"/>
<path d="M3840 2914 c-96 -18 -176 -33 -176 -33 -1 -1 -5 -36 -9 -78 -21 -231
-126 -436 -272 -532 -57 -38 -38 -39 59 -5 303 109 524 317 603 567 33 103 33
117 -2 116 -16 -1 -107 -16 -203 -35z"/>
<path d="M1130 2793 c-52 -8 -97 -16 -99 -18 -3 -4 -171 -890 -171 -905 0 -9
223 20 233 30 5 4 13 39 19 77 l11 70 140 20 140 20 31 -70 31 -69 45 6 c25 3
80 11 122 17 l77 11 -207 414 -207 414 -35 -1 c-19 -1 -78 -8 -130 -16z m179
-518 c-6 -5 -143 -23 -148 -19 -3 3 27 197 36 229 5 15 20 -8 61 -93 30 -62
53 -115 51 -117z"/>
<path d="M230 2667 c-108 -17 -145 -26 -147 -37 -3 -17 113 -849 119 -855 4
-4 220 24 225 29 1 1 -4 44 -12 96 -8 52 -15 102 -15 110 0 12 20 19 76 28 85
13 167 47 223 91 116 92 134 294 39 437 -26 38 -48 57 -101 84 -63 31 -77 35
-165 37 -60 1 -153 -7 -242 -20z m301 -224 c26 -25 36 -100 19 -132 -15 -29
-82 -58 -140 -63 l-45 -3 -12 85 c-20 146 -24 140 90 137 53 -2 71 -7 88 -24z"/>
<path d="M5420 2369 c-30 -5 -73 -11 -95 -14 l-40 -6 -50 -144 c-28 -80 -53
-145 -57 -145 -4 0 -46 57 -94 126 -73 106 -90 125 -108 121 -11 -3 -64 -11
-116 -17 -52 -7 -98 -16 -103 -19 -4 -4 72 -112 168 -241 96 -128 175 -236
175 -239 2 -33 49 -344 53 -347 5 -5 217 23 223 29 1 1 -9 82 -22 179 l-25
177 97 253 c53 139 100 263 105 276 8 20 6 22 -24 21 -17 -1 -57 -5 -87 -10z"/>
<path d="M4193 2197 c-84 -13 -155 -26 -159 -30 -8 -8 106 -847 116 -860 6 -7
217 16 225 25 1 2 -5 56 -14 120 l-17 116 23 5 c19 4 37 -13 111 -104 48 -60
94 -109 102 -109 21 0 244 31 248 35 2 1 -28 38 -65 82 -37 43 -85 100 -106
125 l-39 47 37 32 c55 49 87 110 92 182 12 145 -44 257 -157 315 -89 45 -188
50 -397 19z m288 -226 c23 -23 29 -38 29 -71 0 -66 -38 -93 -161 -114 l-36 -6
-14 104 c-17 121 -24 112 89 115 58 1 66 -2 93 -28z"/>
<path d="M3577 2110 c-148 -21 -270 -40 -271 -42 -4 -4 116 -861 121 -867 2
-3 127 13 278 34 256 36 275 40 275 58 0 12 -5 60 -11 109 l-12 88 -31 -5
c-71 -12 -300 -44 -302 -42 -1 1 -5 29 -9 63 l-7 60 146 19 c124 15 146 21
142 34 -2 9 -10 55 -16 104 -7 48 -14 87 -15 87 -2 0 -66 -9 -141 -20 -75 -11
-139 -19 -141 -16 -5 4 -22 110 -18 114 1 1 71 12 156 23 85 12 158 25 162 29
13 12 -17 211 -31 209 -4 -1 -128 -18 -275 -39z"/>
<path d="M2700 1986 l-75 -11 3 -35 c3 -42 113 -834 116 -837 3 -3 489 64 522
72 20 4 20 6 6 110 -12 84 -18 105 -31 105 -9 0 -79 -9 -155 -20 -77 -11 -141
-19 -142 -17 -2 1 -21 133 -43 292 -56 397 -45 355 -89 354 -20 -1 -71 -6
-112 -13z"/>
<path d="M2076 1899 c-65 -10 -119 -19 -121 -21 -2 -2 -41 -207 -87 -455 -81
-436 -83 -453 -64 -453 28 0 217 27 220 32 2 1 8 34 14 72 6 37 13 70 15 72 3
3 255 44 271 44 1 0 18 -32 36 -71 32 -65 37 -70 60 -65 15 2 67 10 116 17 49
6 90 12 92 14 7 6 -414 835 -423 834 -5 -1 -63 -10 -129 -20z m110 -408 c29
-61 50 -112 46 -115 -4 -2 -39 -7 -78 -11 l-71 -7 21 126 c11 69 22 123 24
121 2 -2 28 -54 58 -114z"/>
<path d="M1552 1825 c-87 -12 -102 -21 -102 -65 0 -29 -69 -542 -73 -546 -2
-2 -57 120 -122 271 -98 224 -124 275 -139 275 -35 0 -201 -22 -213 -29 -8 -4
51 -139 182 -416 l194 -410 68 3 c37 2 99 8 138 15 l69 12 67 410 c37 226 71
429 74 453 l7 42 -33 -1 c-19 -1 -72 -7 -117 -14z"/>
<path d="M5482 1313 c-30 -4 -33 -7 -28 -31 3 -15 12 -79 21 -142 23 -165 24
-170 45 -170 27 0 30 11 21 68 -7 46 -6 51 13 56 16 4 34 -7 71 -44 41 -40 57
-50 85 -50 l34 0 -52 53 -52 53 29 28 c36 35 45 68 31 112 -18 54 -52 74 -124
72 -33 0 -76 -3 -94 -5z m157 -58 c20 -20 18 -75 -3 -91 -23 -16 -96 -29 -106
-18 -4 5 -11 35 -14 66 l-7 57 33 4 c44 6 80 -1 97 -18z"/>
<path d="M5287 1285 c-48 -7 -91 -15 -94 -19 -5 -5 35 -326 42 -334 1 -1 33 2
71 8 140 21 136 19 132 43 -3 19 -8 21 -43 18 -22 -3 -58 -5 -80 -5 l-40 -1
-3 46 -3 46 67 9 c68 9 81 18 65 42 -7 11 -22 12 -72 4 -73 -11 -79 -7 -79 49
0 40 -7 37 108 54 36 6 43 10 40 28 -4 27 -7 27 -111 12z"/>
<path d="M5074 1245 c-4 -9 1 -72 10 -139 27 -192 25 -186 52 -186 29 0 29 -9
1 185 -18 124 -25 150 -40 153 -9 2 -20 -4 -23 -13z"/>
<path d="M4820 1218 c0 -19 49 -331 53 -334 5 -6 185 21 193 29 4 3 4 14 0 23
-5 14 -16 16 -67 10 -33 -4 -66 -9 -73 -12 -9 -4 -17 29 -30 123 -22 163 -22
163 -52 163 -13 0 -24 -1 -24 -2z"/>
<path d="M4580 1178 c0 -20 43 -322 46 -327 2 -2 48 2 104 9 96 12 100 13 94
34 -4 11 -8 22 -9 24 -1 1 -33 -2 -71 -7 -37 -6 -70 -8 -72 -7 -3 4 -41 251
-42 274 0 6 -11 12 -25 12 -14 0 -25 -6 -25 -12z"/>
<path d="M4385 1158 c-33 -5 -63 -12 -66 -16 -7 -7 36 -320 44 -329 3 -2 41 0
84 7 121 17 122 17 116 41 -5 19 -11 20 -67 14 -33 -3 -68 -8 -77 -11 -13 -3
-18 6 -23 43 -7 56 -4 58 75 67 49 6 59 10 59 26 0 27 -7 29 -79 19 -35 -5
-65 -8 -66 -7 -1 2 -5 24 -9 49 l-7 46 58 7 c90 10 101 15 96 37 -6 22 -36 23
-138 7z"/>
<path d="M4063 1113 c-40 -5 -39 5 -11 -190 21 -150 22 -153 46 -153 24 0 24
1 18 60 l-7 60 32 0 c45 0 114 35 127 66 23 48 15 93 -22 130 -31 31 -38 34
-92 32 -33 0 -74 -3 -91 -5z m150 -65 c34 -40 14 -92 -41 -104 -75 -15 -70
-18 -77 39 -3 28 -9 60 -11 69 -4 13 3 18 33 21 52 5 75 -1 96 -25z"/>
<path d="M3848 1083 c-103 -15 -108 -16 -108 -39 0 -23 3 -24 52 -22 l52 3 21
-139 c11 -77 25 -141 30 -143 6 -1 16 1 24 6 12 8 12 27 -3 133 -22 166 -24
156 29 164 39 5 45 10 45 30 0 28 6 27 -142 7z"/>
<path d="M3656 1051 c-4 -5 1 -57 10 -116 8 -58 14 -110 12 -116 -2 -6 -46 39
-98 100 -52 60 -102 110 -110 110 -38 1 -39 -10 -16 -174 l22 -160 27 -3 c15
-2 27 -2 27 0 -1 2 -9 57 -19 123 -11 66 -18 121 -17 123 2 1 47 -47 100 -108
82 -94 101 -110 127 -110 25 0 29 3 24 23 -4 20 -45 302 -45 313 0 8 -39 4
-44 -5z"/>
<path d="M3160 978 c-68 -35 -85 -66 -85 -152 0 -64 3 -77 28 -109 36 -48 75
-67 134 -67 61 0 119 33 144 80 27 49 25 134 -4 185 -25 45 -92 85 -142 85
-17 0 -51 -10 -75 -22z m131 -44 c56 -29 77 -129 39 -191 -42 -70 -153 -61
-193 17 -23 44 -18 121 9 151 36 41 94 50 145 23z"/>
<path d="M2952 951 c-7 -4 -31 -68 -53 -141 -21 -74 -40 -135 -42 -136 -1 -2
-38 53 -81 122 -56 88 -84 124 -97 124 -30 0 -32 -20 -15 -152 26 -193 25
-188 52 -188 28 0 28 -3 9 120 -8 52 -13 96 -11 97 2 2 32 -41 67 -97 88 -137
96 -136 139 15 19 64 37 110 41 103 3 -7 10 -40 13 -73 13 -117 16 -125 42
-125 29 0 29 -8 1 185 -23 152 -30 169 -65 146z"/>
<path d="M1458 777 c-38 -5 -68 -13 -68 -18 0 -16 134 -162 206 -224 162 -142
266 -215 426 -300 717 -379 1596 -291 2228 223 85 69 247 229 239 236 -3 3
-67 -4 -143 -15 l-139 -20 -71 -58 c-295 -241 -645 -380 -1042 -413 -384 -31
-799 77 -1132 295 -103 67 -247 185 -322 261 -49 51 -55 52 -182 33z"/>
</g>
</svg>
