<svg width="224" height="100" viewBox="0 0 224 100" fill="none" xmlns="http://www.w3.org/2000/svg">
<path d="M85.7588 99.5859V70.73H96.2643C104.195 70.73 106.517 76.9585 106.517 84.7638C106.517 92.6532 104.273 99.5859 96.2643 99.5859H85.7588ZM96.2643 73.0469H88.334V97.2991H96.2643C102.323 97.2991 103.864 91.0284 103.864 84.7577C103.864 78.5713 102.323 73.0469 96.2643 73.0469Z" fill="#BD1426"/>
<path d="M112.58 70.7241H129.891V73.047H115.155V83.7589H127.4V86.0397H115.155V97.2932H129.891V99.574H112.58V70.7241Z" fill="#BD1426"/>
<path d="M151.271 73.2541C151.271 73.2541 145.543 72.55 143.136 72.55C138.816 72.55 136.451 74.0846 136.451 77.6592C136.451 81.9379 138.654 82.5578 143.756 83.5568C149.4 84.6761 152.101 86.0482 152.101 91.1574C152.101 97.5544 148.738 99.9195 143.052 99.9195C139.773 99.9195 134.045 99.1311 134.045 99.1311L134.333 96.9286C134.333 96.9286 140.019 97.6327 142.968 97.6327C147.288 97.6327 149.484 95.7611 149.484 91.3199C149.484 87.7091 147.619 86.7944 142.799 85.9218C136.945 84.8025 133.834 83.5568 133.834 77.8217C133.834 72.3394 137.402 70.2632 142.968 70.2632C146.331 70.2632 151.475 71.0515 151.475 71.0515L151.271 73.2541Z" fill="#BD1426"/>
<path d="M157.795 70.7241H160.37V99.58H157.795V70.7241Z" fill="#BD1426"/>
<path d="M178.925 85.0099H186.771V98.9594C185.652 99.2061 180.501 100 177.511 100C168.792 100 166.47 94.5182 166.47 85.2566C166.47 75.8747 168.75 70.3081 177.475 70.3081C181.831 70.3081 186.777 71.3853 186.777 71.3853L186.65 73.5879C186.65 73.5879 181.464 72.631 177.685 72.631C170.627 72.631 169.135 77.0722 169.135 85.2566C169.135 93.3507 170.627 97.6716 177.643 97.6716C179.803 97.6716 182.872 97.2563 184.244 97.0096V87.2907H178.931V85.0099H178.925Z" fill="#BD1426"/>
<path d="M193.201 70.7241H198.267L210.349 97.2992H211.306V70.7241H213.839V99.58H208.857L196.691 73.047H195.776V99.58H193.201V70.7241Z" fill="#BD1426"/>
<path d="M220.435 39.8081C222.487 39.8081 223.919 41.439 223.919 43.4249C223.919 45.4529 222.487 47.0416 220.423 47.0416C218.426 47.0416 216.939 45.4409 216.939 43.4249C216.939 41.3848 218.408 39.8081 220.435 39.8081ZM220.423 46.4519C222.102 46.4519 223.335 45.1039 223.335 43.4189C223.335 41.7519 222.09 40.3738 220.423 40.3738C218.757 40.3738 217.523 41.7519 217.523 43.4189C217.523 45.0918 218.751 46.4519 220.423 46.4519ZM221.506 45.3566C221.506 45.3566 221.019 45.5131 220.471 45.5131C219.304 45.5131 218.925 44.8511 218.925 43.4068C218.925 42.0287 219.298 41.3427 220.489 41.3427C221.043 41.3427 221.506 41.4751 221.506 41.4751L221.452 42.1792C221.452 42.1792 220.947 42.1009 220.526 42.1009C219.822 42.1009 219.731 42.5402 219.731 43.4128C219.731 44.2854 219.876 44.7608 220.526 44.7608C220.911 44.7608 221.452 44.6706 221.452 44.6706L221.506 45.3566Z" fill="#BD1426"/>
<path d="M85.7227 35.3525H89.9224V39.7817H85.7227V35.3525ZM85.7227 43.0555H89.9224V62.3128H85.7227V43.0555Z" fill="#BD1426"/>
<path d="M95.002 62.3062V43.0489H99.1596V44.2404C99.1596 44.2404 101.97 42.6216 104.473 42.6216C109.822 42.6216 111.133 45.6666 111.133 51.9794V62.3002H106.976V52.0998C106.976 48.2483 106.476 46.3587 103.546 46.3587C101.314 46.3587 99.1957 47.3577 99.1957 47.3577V62.3002H95.002V62.3062Z" fill="#BD1426"/>
<path d="M121.071 46.6345V55.1077C121.071 57.9963 121.185 58.9953 123.189 58.9953C124.266 58.9953 126.348 58.881 126.348 58.881L126.54 62.233C126.54 62.233 123.959 62.7324 122.611 62.7324C118.261 62.7324 116.913 61.1136 116.913 55.5711V46.6345H114.446V43.0539H116.913V37.4692H121.071V43.0539H126.384V46.6345H121.071Z" fill="#BD1426"/>
<path d="M144.057 57.762C144.136 58.9174 144.635 59.3808 145.754 59.5313L145.64 62.7268C143.293 62.7268 141.946 62.4199 140.52 61.3005C140.52 61.3005 137.439 62.7268 134.322 62.7268C130.507 62.7268 128.582 60.6085 128.582 56.6005C128.582 52.5204 130.814 51.1303 134.936 50.7872L139.906 50.366V48.9819C139.906 46.8636 138.979 46.2076 137.096 46.2076C134.515 46.2076 129.858 46.5928 129.858 46.5928L129.701 43.6259C129.701 43.6259 133.901 42.627 137.439 42.627C142.138 42.627 144.063 44.5888 144.063 48.9819V57.762H144.057ZM135.435 53.7601C133.666 53.9165 132.776 54.7591 132.776 56.4922C132.776 58.2254 133.51 59.3026 135.122 59.3026C137.319 59.3026 139.9 58.4541 139.9 58.4541V53.3328L135.435 53.7601Z" fill="#BD1426"/>
<path d="M162.316 43.361L162.16 46.6709C162.16 46.6709 159.115 46.364 157.653 46.364C153.646 46.364 152.725 47.9828 152.725 52.412C152.725 57.3406 153.531 58.9956 157.695 58.9956C159.157 58.9956 162.202 58.6886 162.202 58.6886L162.316 62.0406C162.316 62.0406 158.429 62.7327 156.462 62.7327C150.529 62.7327 148.489 59.808 148.489 52.412C148.489 45.5154 150.8 42.6328 156.54 42.6328C158.58 42.6268 162.316 43.361 162.316 43.361Z" fill="#BD1426"/>
<path d="M171.392 46.6345V55.1077C171.392 57.9963 171.506 58.9953 173.51 58.9953C174.587 58.9953 176.669 58.881 176.669 58.881L176.862 62.233C176.862 62.233 174.28 62.7324 172.932 62.7324C168.582 62.7324 167.235 61.1136 167.235 55.5711V46.6345H164.768V43.0539H167.235V37.4692H171.392V43.0539H176.705V46.6345H171.392Z" fill="#BD1426"/>
<path d="M180.143 35.3516H184.342V39.7807H180.143V35.3516ZM180.143 43.0545H184.342V62.3118H180.143V43.0545Z" fill="#BD1426"/>
<path d="M189.651 35.0381H193.851V62.3052H189.651V35.0381Z" fill="#BD1426"/>
<path d="M213.945 58.7249L214.024 61.8421C214.024 61.8421 209.631 62.7268 206.244 62.7268C200.468 62.7268 198.235 59.6456 198.235 52.8694C198.235 45.8225 201.28 42.627 206.593 42.627C211.984 42.627 214.679 45.4373 214.679 51.4432L214.409 54.4461H202.471C202.507 57.5273 203.663 59.0679 206.864 59.0679C209.902 59.0739 213.945 58.7249 213.945 58.7249ZM210.558 51.2145C210.558 47.363 209.403 46.0933 206.593 46.0933C203.741 46.0933 202.471 47.5195 202.435 51.2145H210.558Z" fill="#BD1426"/>
<path d="M0 43.1294V54.07H7.40678C7.40678 54.07 7.40678 50.5615 7.40678 50.5314C10.7341 50.5314 17.0639 50.5314 20.3912 50.5314C20.3912 56.2123 20.3912 86.5185 20.3912 92.1934C17.1241 92.1934 10.68 92.1934 7.40678 92.1934C7.40678 92.1333 7.40678 88.5466 7.40678 88.5466H0V99.5955H27.792V43.1294H0Z" fill="#BD1426"/>
<path d="M54.5551 92.1934C54.5551 92.1333 54.5551 88.5466 54.5551 88.5466H61.9619V99.5955H34.1699V43.1294H61.9559V54.07H54.5551C54.5551 54.07 54.5551 50.5615 54.5551 50.5314H41.5707V92.1934H54.5551Z" fill="#BD1426"/>
<path d="M33.8219 17.6927C34.3874 18.0057 34.8808 18.4089 35.308 18.8903C35.651 19.2815 35.9458 19.7147 36.1745 20.1902C37.5523 23.0306 36.361 26.4608 33.521 27.8329C30.681 29.211 27.2574 28.0195 25.8796 25.185C25.6509 24.7096 25.4885 24.2101 25.3922 23.6986C25.2779 23.0667 25.2719 22.4288 25.3741 21.7969L18.0636 20.6295C17.835 22.0858 17.847 23.5542 18.1058 25.0045C18.3163 26.184 18.6894 27.3334 19.2129 28.4167C22.3717 34.928 30.2358 37.6542 36.7461 34.5008C43.2563 31.3414 45.988 23.4759 42.8291 16.9646C42.2996 15.8813 41.6318 14.8763 40.8375 13.9797C39.8628 12.8784 38.7136 11.9516 37.42 11.2295L33.8219 17.6927Z" fill="#BD1426"/>
<path d="M30.9073 9.4421L20.2334 0L20.9193 14.2384L24.0361 11.416L26.3766 16.3988L29.0662 15.135L26.7076 10.1281L30.9073 9.4421Z" fill="#BD1426"/>
</svg>
