<svg width="160" height="115" viewBox="0 0 160 115" fill="none" xmlns="http://www.w3.org/2000/svg">
<g clip-path="url(#clip0)">
<path d="M68.8162 52.5384C65.0375 52.5317 61.2555 52.6496 57.4867 52.4744C55.3535 52.3766 54.6104 52.9428 54.6833 55.2245C54.8559 60.5259 54.7762 65.8341 54.7165 71.1389C54.6999 72.5948 54.6037 74.1148 54.1791 75.4899C53.0013 79.3016 49.5676 81.6103 45.7657 81.3811C42.0268 81.1553 38.9016 78.3546 38.1452 74.4518C37.9229 73.3059 37.8499 72.1129 37.8499 70.94C37.8334 50.8971 37.8334 30.8508 37.8533 10.8079C37.8533 9.63501 37.9229 8.43856 38.1518 7.29605C38.9713 3.22477 42.4647 0.360054 46.4192 0.417348C50.3838 0.474642 53.771 3.42025 54.4743 7.53196C54.6867 8.77896 54.7265 10.0698 54.7298 11.3437C54.753 18.2224 54.8061 25.1011 54.6966 31.9765C54.6701 33.7829 55.1312 34.3356 56.936 34.2716C60.9038 34.13 64.8783 34.221 68.8494 34.2177C68.8394 40.3178 68.8295 46.4281 68.8162 52.5384Z" fill="#9B0707"/>
<path d="M105.041 39.6442C105.057 30.1131 105.064 20.582 105.094 11.0509C105.1 8.47942 105.303 5.94161 106.836 3.73746C108.972 0.660413 112.373 -0.650618 115.713 0.313277C119.2 1.32098 121.665 4.36096 121.93 7.9941C121.96 8.38505 121.954 8.77937 121.954 9.17369C121.954 30.103 121.967 51.0323 121.944 71.9617C121.937 76.5385 119.502 79.7335 115.348 80.8457C111.921 81.7624 108.61 80.175 106.364 76.5048C105.91 75.7599 105.535 74.9679 105.124 74.1961C105.177 74.1254 105.283 74.0007 105.273 73.9905C105.163 73.8793 105.037 73.785 104.918 73.6839L104.968 73.7277C104.991 62.3631 105.017 51.002 105.041 39.6442Z" fill="#FAB03C"/>
<path d="M105.043 39.6441C105.016 51.0052 104.993 62.363 104.966 73.7241C99.5387 65.4198 94.9505 56.6032 89.7452 48.1641C88.4215 46.0172 87.841 43.2738 85.3893 41.919C85.2234 40.2002 84.3409 38.8015 83.5016 37.359C78.6446 29.0278 73.8242 20.6729 68.9938 12.3281C68.9573 12.136 68.8976 11.9439 68.891 11.7518C68.6753 5.59771 70.6426 2.01512 74.9389 0.72094C79.1224 -0.539537 82.347 1.26355 85.5386 6.71326C91.5002 16.8948 97.4354 27.0932 103.397 37.2748C103.885 38.1005 104.492 38.8554 105.043 39.6441Z" fill="#F69321"/>
<path d="M68.9959 12.3281C73.8296 20.6729 78.6501 29.0278 83.5037 37.359C84.343 38.8015 85.2255 40.2002 85.3914 41.919C85.4279 52.205 85.5539 62.4978 85.4544 72.7839C85.4046 77.8864 81.7321 81.4387 77.0543 81.3881C72.4628 81.3409 68.9362 77.5797 68.8831 72.5344C68.8135 65.8714 68.8334 59.2051 68.8135 52.5387C68.8234 46.4284 68.8367 40.3215 68.8467 34.2112C68.8997 26.918 68.9462 19.6214 68.9959 12.3281Z" fill="#F05A25"/>
<path d="M64.8945 102.698C64.868 100.356 64.4732 98.0674 62.0679 97.0395C59.5997 95.9846 57.1778 96.025 55.1342 98.1988C54.8124 98.5426 54.6598 99.3953 53.6413 98.6134C49.6668 95.5667 47.8455 95.6476 44.0635 98.792C44.0767 96.2845 42.3814 96.5407 40.852 96.6485C38.9478 96.7867 39.6146 98.3404 39.598 99.3616C39.535 103.78 39.6511 108.202 39.5383 112.62C39.4885 114.588 40.4009 114.861 42.0132 114.861C43.5924 114.861 44.5943 114.679 44.4981 112.664C44.3654 109.921 44.4549 107.167 44.5113 104.417C44.5511 102.459 45.2379 100.828 47.4474 100.78C49.8427 100.73 49.8095 102.675 49.8427 104.35C49.8991 107.1 49.9621 109.853 49.8261 112.597C49.7299 114.531 50.5858 114.905 52.2446 114.855C53.774 114.811 54.8655 114.727 54.7825 112.677C54.6631 109.739 54.7129 106.786 54.8323 103.844C54.9086 101.926 55.9337 100.669 57.9641 100.764C59.9911 100.858 60.0641 102.533 60.1072 103.992C60.1902 106.739 60.2167 109.496 60.1006 112.239C60.0243 114.042 60.4058 114.915 62.4561 114.878C64.2973 114.845 65.0471 114.427 64.9476 112.408C64.785 109.186 64.931 105.937 64.8945 102.698Z" fill="#363636"/>
<path d="M159.902 101.849C159.826 99.7092 159.133 97.6769 156.893 96.9018C154.611 96.1131 152.289 96.0053 150.434 98.0005C149.671 98.8228 149.29 99.1598 148.241 98.1083C146.058 95.9109 143.301 95.8705 140.581 97.6028C139.927 98.0207 139.406 99.0924 138.723 97.4916C138.05 95.9177 136.494 96.585 135.376 96.7703C134.188 96.9658 134.695 98.2128 134.672 99.0115C134.609 101.172 134.649 103.336 134.649 105.496C134.649 107.757 134.755 110.022 134.616 112.273C134.503 114.124 134.964 114.919 136.978 114.889C138.836 114.862 139.556 114.4 139.466 112.395C139.34 109.56 139.453 106.706 139.625 103.868C139.738 102.008 140.661 100.676 142.747 100.761C144.831 100.848 144.864 102.611 144.937 103.989C145.096 106.928 145.096 109.884 144.977 112.826C144.9 114.707 145.846 114.862 147.299 114.852C148.808 114.842 149.927 114.808 149.82 112.718C149.671 109.779 149.704 106.82 149.834 103.878C149.917 101.991 150.955 100.693 152.975 100.771C155.012 100.848 155.065 102.476 155.079 103.989C155.109 106.938 155.175 109.887 155.059 112.83C154.982 114.744 156.028 114.882 157.434 114.828C158.675 114.778 160.038 115.108 159.992 113.045C159.916 109.314 160.035 105.577 159.902 101.849Z" fill="#363636"/>
<path d="M113.292 92.1193C113.309 90.4645 113.023 89.5984 111.109 89.6085C109.178 89.6186 108.913 90.5286 108.946 92.1598C109.026 96.2513 108.973 100.349 108.973 104.444C108.8 104.505 108.624 104.566 108.452 104.626C108.186 104.235 107.904 103.858 107.662 103.453C105.214 99.3485 102.726 95.2671 100.357 91.1184C99.4245 89.4838 98.0278 89.5377 96.5913 89.7264C94.7766 89.9624 95.4268 91.4925 95.4169 92.5339C95.3704 99.2036 95.4467 105.873 95.3605 112.543C95.3373 114.383 95.9875 114.879 97.7226 114.879C99.4146 114.879 99.8624 114.269 99.8259 112.641C99.733 108.388 99.7961 104.128 99.7961 99.0654C100.489 100.13 100.742 100.494 100.967 100.869C103.485 105.044 106.06 109.19 108.491 113.416C109.447 115.074 110.864 114.976 112.267 114.764C113.876 114.518 113.236 113.065 113.242 112.129C113.289 105.459 113.222 98.7857 113.292 92.1193Z" fill="#363636"/>
<path d="M15.3539 89.6639C13.8411 89.5494 12.9885 89.9706 13.1046 91.7737C13.2406 93.8296 13.1079 95.8989 13.1477 97.9615C13.1643 98.976 12.9918 99.4916 11.7643 99.6298C5.23197 100.378 5.01964 100.236 5.01964 93.6745C5.01964 92.987 4.95329 92.2927 5.03291 91.612C5.25851 89.6403 3.99119 89.6505 2.64758 89.6572C1.23429 89.6639 -0.0695188 89.5595 0.00346783 91.7164C0.126218 95.2485 0.0366436 98.7906 0.0366436 102.326C0.0366436 105.568 0.116265 108.814 0.00678541 112.053C-0.0562485 113.94 0.285462 114.907 2.49828 114.9C4.5784 114.894 5.30495 114.223 5.03623 112.198C4.93339 111.426 5.01964 110.627 5.01964 109.842C5.01964 103.684 5.01964 103.731 11.1937 103.913C12.6434 103.957 13.2671 104.267 13.1742 105.878C13.0382 108.227 13.234 110.597 13.1145 112.949C13.0117 114.964 14.2425 114.867 15.5563 114.83C16.7804 114.793 18.1539 115.157 18.1407 113.077C18.0942 105.905 18.0843 98.7333 18.1506 91.5614C18.1639 89.2898 16.6444 89.7617 15.3539 89.6639Z" fill="#363636"/>
<path d="M131.671 105.432C131.671 103.177 131.571 100.912 131.701 98.664C131.807 96.807 130.858 96.561 129.395 96.6082C128.002 96.652 126.665 96.4295 126.751 98.6202C126.877 101.852 126.625 105.101 126.83 108.327C127.003 111.053 125.636 111.208 123.649 110.814C121.725 110.433 121.29 108.947 121.25 107.305C121.177 104.363 121.141 101.418 121.234 98.4787C121.29 96.7363 120.345 96.5138 119.041 96.6351C117.913 96.7396 116.284 96.0689 116.327 98.2124C116.397 101.933 116.025 105.674 116.639 109.368C117.163 112.533 119.097 114.434 122.236 114.838C124.442 115.121 126.651 114.996 128.877 114.703C131.173 114.4 131.966 113.321 131.714 111.013C131.512 109.176 131.671 107.295 131.671 105.432Z" fill="#363636"/>
<path d="M81.2603 107.302C81.2603 105.732 81.33 104.158 81.2471 102.594C81.0646 99.2003 79.2466 97.131 75.9622 96.612C73.9451 96.2952 71.928 96.4199 69.9242 96.8951C68.7398 97.1782 67.99 97.5691 68.3251 99.0352C68.6502 100.454 69.2972 101.078 70.7635 100.602C72.2763 100.114 73.7991 100.053 75.3119 100.673C76.1181 101.003 76.6124 101.59 76.5295 102.463C76.4299 103.565 75.5242 103.117 74.9437 103.127C73.3778 103.154 71.8616 103.403 70.4119 103.983C68.1028 104.906 66.8455 106.608 66.9085 109.176C66.9715 111.808 68.1758 113.601 70.7005 114.468C72.492 115.081 74.3133 115.041 76.1479 114.943C81.2869 114.673 81.2869 114.67 81.2869 109.658C81.2869 108.873 81.2869 108.088 81.2869 107.302C81.2769 107.302 81.267 107.302 81.2603 107.302ZM74.6219 111.252C72.9896 111.111 71.4138 110.848 71.4403 108.758C71.4635 106.642 73.1787 106.507 74.7214 106.312C76.5427 106.082 76.8446 107.144 76.566 108.475C76.7219 110.12 76.692 111.431 74.6219 111.252Z" fill="#363636"/>
<path d="M36.5172 105.418C36.5172 103.157 36.4044 100.889 36.547 98.6375C36.6864 96.4468 35.3461 96.6692 33.9361 96.5985C32.3636 96.5176 31.6436 96.9557 31.71 98.7217C31.8294 101.863 31.8095 105.014 31.7034 108.155C31.6702 109.126 32.5195 110.706 30.5455 110.885C28.8337 111.04 27.1384 110.989 26.518 108.94C26.2128 107.926 26.1 106.824 26.0701 105.755C26.0071 103.299 25.9805 100.838 26.0701 98.3847C26.1365 96.5749 25.0417 96.5277 23.8009 96.6355C22.7625 96.7265 21.2596 96.0929 21.2828 98.0847C21.326 101.718 21.1601 105.375 21.5118 108.981C21.8501 112.432 23.9435 114.437 27.0919 114.832C29.391 115.121 31.6967 115.003 34.0257 114.643C36.1489 114.316 36.7195 113.332 36.547 111.313C36.3878 109.362 36.5172 107.387 36.5172 105.418Z" fill="#363636"/>
<path d="M91.148 103.059C90.1892 103.113 89.2238 103.069 88.2584 103.069C87.5849 103.069 86.9115 103.076 86.2347 103.066C84.8844 103.046 83.5342 102.78 83.5342 104.984C83.5342 106.999 84.3768 107.491 86.1683 107.346C87.7939 107.211 89.4428 107.269 91.0783 107.329C92.6575 107.387 92.7272 106.355 92.7139 105.206C92.7039 104.107 92.7869 102.965 91.148 103.059Z" fill="#363636"/>
<path d="M104.918 73.6807C105.041 73.7784 105.163 73.8761 105.273 73.9874C105.283 73.9975 105.177 74.1222 105.124 74.1929C104.988 74.048 104.918 73.8795 104.918 73.6807Z" fill="#F69321"/>
</g>
<defs>
<clipPath id="clip0">
<rect width="160" height="115" fill="white"/>
</clipPath>
</defs>
</svg>
