<?xml version="1.0" standalone="no"?>
<!DOCTYPE svg PUBLIC "-//W3C//DTD SVG 20010904//EN"
 "http://www.w3.org/TR/2001/REC-SVG-20010904/DTD/svg10.dtd">
<svg version="1.0" xmlns="http://www.w3.org/2000/svg"
 width="352.000000pt" height="352.000000pt" viewBox="0 0 352.000000 352.000000"
 preserveAspectRatio="xMidYMid meet">
<metadata>
Created by potrace 1.14, written by Peter Selinger 2001-2017
</metadata>
<g transform="translate(0.000000,352.000000) scale(0.100000,-0.100000)"
fill="#000000" stroke="none">
<path d="M1689 3456 c0 -36 -1 -84 -1 -106 0 -22 1 -44 1 -49 1 -4 11 -8 24
-7 18 1 22 7 22 36 0 31 3 35 34 41 45 9 64 31 64 73 0 48 -24 69 -89 74 l-54
4 -1 -66z m94 2 c13 -20 -6 -48 -32 -48 -14 0 -16 7 -13 36 5 38 26 44 45 12z"/>
<path d="M1891 3423 c-15 -117 -14 -133 4 -133 8 0 18 0 23 0 7 0 9 5 11 45 2
41 28 30 36 -15 4 -26 13 -41 26 -45 32 -11 39 3 23 47 -13 39 -13 43 6 63 25
27 26 77 1 99 -10 10 -41 20 -69 23 l-49 5 -12 -89z m97 4 c-4 -30 -48 -37
-48 -9 0 11 3 27 6 36 9 24 46 1 42 -27z"/>
<path d="M1455 3488 c-2 -7 -3 -29 -2 -48 2 -29 -2 -36 -20 -38 -19 -3 -23 3
-29 37 -6 35 -10 41 -30 41 -27 0 -30 -14 -15 -70 6 -19 12 -53 16 -74 11 -78
16 -87 39 -80 11 4 22 7 23 8 1 1 -2 19 -7 41 -10 43 -2 59 26 53 13 -2 21
-17 27 -46 6 -33 12 -42 24 -38 8 3 18 6 23 6 6 0 4 20 -15 120 -3 14 -8 42
-11 63 -5 28 -11 37 -26 37 -10 0 -21 -6 -23 -12z"/>
<path d="M2140 3463 c-8 -4 -20 -13 -27 -22 -17 -23 -36 -126 -29 -154 10 -40
82 -61 117 -34 19 14 49 106 49 148 0 47 -60 81 -110 62z m60 -64 c0 -45 -22
-107 -40 -112 -32 -8 -38 11 -22 74 13 51 18 59 38 59 18 0 24 -6 24 -21z"/>
<path d="M1192 3430 c-42 -17 -48 -53 -23 -130 13 -41 30 -74 41 -80 53 -29
124 12 114 66 -7 37 -8 38 -33 25 -11 -7 -18 -17 -15 -25 3 -8 -4 -19 -16 -26
-18 -10 -22 -7 -36 25 -25 61 -29 94 -10 101 9 4 25 -1 35 -10 15 -13 20 -14
36 -2 18 13 17 14 -8 40 -27 27 -47 31 -85 16z"/>
<path d="M2339 3390 c-17 -10 -58 -95 -65 -135 -5 -30 29 -71 63 -78 35 -7 67
13 89 54 14 29 14 32 -3 44 -29 22 -54 25 -60 8 -3 -8 0 -19 7 -23 18 -11 5
-40 -19 -40 -10 0 -21 7 -25 15 -6 17 29 106 47 117 15 9 39 -11 33 -27 -2 -7
6 -17 19 -23 19 -9 25 -8 29 4 11 28 6 45 -19 69 -25 26 -67 32 -96 15z"/>
<path d="M977 3339 c-44 -23 -44 -24 14 -141 36 -72 59 -93 74 -68 3 5 -1 25
-9 45 -19 44 -2 48 38 8 23 -23 29 -25 52 -14 l26 11 -38 34 c-29 26 -36 38
-31 56 7 26 -17 80 -36 81 -6 0 -21 2 -32 4 -11 2 -37 -5 -58 -16z m73 -44
c10 -13 9 -19 -6 -36 l-18 -20 -13 23 c-7 13 -12 29 -13 36 0 17 35 15 50 -3z"/>
<path d="M2536 3308 c-20 -33 -96 -169 -96 -174 0 -2 9 -8 19 -14 16 -8 23 -4
41 26 27 43 41 33 31 -23 -7 -37 -6 -42 15 -51 26 -12 34 0 34 52 0 26 5 34
30 43 60 23 51 98 -17 139 l-42 25 -15 -23z m64 -79 c0 -10 -9 -20 -20 -24
-33 -10 -42 3 -24 36 12 25 18 28 30 18 8 -6 14 -20 14 -30z"/>
<path d="M803 3243 c-18 -7 -16 -25 8 -107 12 -39 22 -75 23 -81 1 -5 6 -20
10 -33 7 -22 9 -22 25 -7 11 9 16 25 14 39 -7 33 26 51 60 35 17 -7 31 -8 42
-2 16 9 14 13 -16 41 -68 61 -143 122 -148 121 -3 0 -12 -3 -18 -6z m71 -92
c14 -15 14 -20 2 -30 -11 -9 -16 -6 -24 19 -12 34 -3 39 22 11z"/>
<path d="M2682 3118 c-90 -67 -93 -70 -73 -85 19 -13 23 -12 37 1 14 14 17 14
39 0 19 -12 23 -22 19 -44 -5 -21 -1 -31 13 -38 18 -10 23 -2 56 93 43 119 43
121 19 134 -13 7 -37 -6 -110 -61z m61 -28 c-6 -24 -19 -34 -34 -25 -7 5 -4
14 7 26 22 25 33 24 27 -1z"/>
<path d="M643 3124 c-24 -20 -43 -40 -43 -45 0 -11 130 -169 139 -169 3 1 26
19 50 41 40 36 43 41 29 55 -13 14 -18 13 -46 -11 l-31 -26 -11 22 c-10 17 -8
25 9 43 19 21 20 24 6 36 -13 11 -19 10 -35 -5 -19 -17 -22 -17 -37 -3 -15 15
-13 19 13 42 26 22 27 26 14 40 -13 13 -20 11 -57 -20z"/>
<path d="M2836 2998 c-71 -73 -76 -82 -62 -96 14 -15 19 -13 56 23 45 43 46
43 25 -8 -18 -44 -8 -52 39 -32 20 8 36 13 36 10 0 -3 -16 -22 -35 -42 -31
-32 -33 -37 -19 -51 14 -14 24 -7 96 65 74 74 78 81 63 96 -15 15 -20 14 -72
-8 -64 -29 -69 -30 -56 -12 12 15 46 107 42 110 -2 2 -11 8 -19 14 -13 10 -29
-2 -94 -69z"/>
<path d="M491 2984 c-26 -34 -27 -58 0 -85 16 -16 30 -19 77 -17 47 3 57 0 60
-14 3 -14 -3 -18 -22 -18 -23 0 -60 -39 -39 -41 4 0 17 -2 27 -4 39 -7 88 34
81 70 -10 58 -32 69 -110 58 -43 -5 -47 -4 -43 13 2 11 13 20 26 22 14 2 22
10 22 23 0 30 -53 26 -79 -7z"/>
<path d="M379 2857 c-13 -17 -30 -39 -36 -48 -11 -15 -2 -26 73 -84 84 -66 86
-67 106 -49 11 11 29 32 40 47 18 25 19 30 6 44 -13 13 -18 11 -40 -16 -24
-28 -27 -29 -47 -15 l-21 15 20 27 c19 24 20 26 4 35 -13 8 -22 5 -35 -12 -10
-13 -23 -19 -33 -15 -20 8 -21 28 -1 44 8 7 15 20 15 30 0 31 -26 30 -51 -3z"/>
<path d="M3030 2828 c-36 -27 -73 -56 -83 -63 -10 -7 -15 -19 -11 -29 7 -19
28 -21 46 -3 7 7 26 22 42 32 l29 19 -27 -42 c-31 -50 -21 -60 41 -43 l38 11
-34 -28 c-19 -15 -40 -31 -47 -37 -11 -8 -10 -14 0 -28 13 -17 20 -14 104 48
81 60 90 69 79 86 -6 10 -19 17 -27 15 -55 -16 -103 -27 -105 -24 -2 2 11 26
30 53 31 46 32 51 18 68 -9 9 -19 17 -22 16 -3 0 -35 -23 -71 -51z"/>
<path d="M282 2703 c-8 -3 -27 -26 -43 -51 l-28 -45 97 -57 c95 -57 97 -57
109 -37 10 19 7 24 -24 43 -42 25 -31 37 25 28 34 -5 42 -3 51 14 13 24 14 33
4 30 -5 -1 -27 1 -49 5 -32 5 -43 12 -48 30 -8 34 -58 55 -94 40z m52 -59 c16
-42 -3 -57 -39 -30 -16 12 -17 16 -6 30 17 20 37 21 45 0z"/>
<path d="M3160 2610 c-46 -27 -86 -53 -88 -59 -2 -5 10 -32 25 -59 26 -46 30
-49 47 -36 18 12 18 15 2 38 -21 32 -20 39 4 54 17 10 21 8 35 -18 13 -26 18
-28 34 -18 17 11 18 14 5 32 -19 27 -18 33 6 46 16 9 22 6 35 -20 16 -32 22
-35 43 -21 11 6 8 19 -15 59 -15 29 -32 51 -38 51 -5 -1 -48 -23 -95 -49z"/>
<path d="M506 2491 c-4 -5 -2 -12 3 -15 5 -4 12 -2 15 3 4 5 2 12 -3 15 -5 4
-12 2 -15 -3z"/>
<path d="M645 2480 c4 -6 11 -8 16 -5 14 9 11 15 -7 15 -8 0 -12 -5 -9 -10z"/>
<path d="M2890 2467 c-3 -3 -33 -8 -67 -11 -75 -8 -124 -14 -218 -26 -38 -5
-90 -12 -115 -15 -109 -13 -127 -15 -170 -20 -25 -4 -58 -8 -75 -10 -16 -2
-66 -8 -110 -14 -44 -5 -102 -13 -130 -16 -88 -10 -129 -15 -157 -21 -17 -3
-28 -1 -28 5 0 6 -7 11 -16 11 -8 0 -12 -4 -9 -10 3 -5 0 -10 -7 -11 -7 0 -22
-2 -33 -4 -11 -2 -47 -7 -80 -11 -33 -3 -68 -8 -78 -10 -10 -2 -46 -6 -80 -9
-34 -3 -75 -8 -92 -12 -16 -3 -55 -7 -85 -9 -30 -1 -55 -3 -55 -4 0 -3 -41
-10 -95 -15 -30 -3 -66 -8 -80 -10 -14 -3 -45 -7 -70 -10 -25 -3 -61 -7 -80
-10 -19 -3 -60 -7 -90 -10 -30 -3 -65 -8 -77 -10 -55 -12 -122 -14 -128 -4 -5
7 -12 6 -23 -4 -10 -8 -44 -18 -77 -22 -79 -8 -129 -16 -133 -20 -3 -3 -5
-501 -3 -641 l1 -41 39 7 c31 5 38 4 34 -7 -6 -16 9 -17 25 -1 14 14 102 23
103 11 0 -4 2 -17 5 -28 2 -11 6 -45 8 -75 2 -30 7 -62 10 -70 3 -8 15 -80 26
-160 12 -80 23 -154 25 -165 2 -11 4 -23 4 -26 1 -3 18 -5 39 -3 20 1 93 5
162 9 69 3 157 7 195 10 74 4 224 13 365 20 206 11 290 16 355 20 39 2 122 7
185 10 131 6 279 15 328 19 18 1 36 -2 38 -6 3 -5 11 -5 17 0 18 13 114 15
122 2 5 -8 11 -7 22 2 18 15 125 23 121 9 -2 -5 2 -9 7 -9 6 0 9 4 8 9 -2 5 4
9 12 9 13 0 18 10 17 30 -8 112 -14 195 -18 235 -2 28 -7 97 -10 155 -3 58 -8
108 -10 112 -2 4 0 10 6 13 8 5 7 11 -1 21 -6 8 -10 14 -8 15 10 1 92 8 171
13 212 14 286 21 294 28 1 2 -10 57 -25 123 -54 231 -63 279 -63 304 0 14 -4
28 -8 31 -6 4 -63 243 -74 310 -3 14 -55 27 -66 17z m-96 -217 c11 -89 14
-111 21 -185 4 -38 13 -84 20 -102 17 -40 55 -52 90 -29 31 21 32 6 2 -29 -16
-20 -35 -28 -68 -32 -88 -10 -129 35 -144 157 -3 30 -8 69 -10 85 -3 17 -7 57
-10 90 l-6 60 43 31 c49 35 52 33 62 -46z m-330 -92 c-12 -5 -28 -21 -35 -34
-16 -30 -16 -124 0 -162 30 -73 157 -86 209 -23 11 14 12 13 6 -9 -10 -35 -34
-65 -68 -85 -34 -21 -122 -23 -157 -5 -35 19 -74 65 -85 102 -9 29 -10 48 -5
110 2 28 67 94 103 105 43 14 59 14 32 1z m139 -36 c24 -26 40 -82 24 -83 -26
-3 -74 -8 -117 -13 -37 -4 -40 -3 -20 5 56 23 76 71 49 120 -10 19 -9 20 18 6
15 -8 36 -24 46 -35z m-1655 -12 c62 -38 81 -138 40 -200 -25 -36 -73 -64
-126 -74 l-33 -6 30 31 c32 32 35 43 32 123 -3 79 -33 122 -94 136 -25 6 -15
8 43 9 59 1 82 -3 108 -19z m1266 -18 c59 -54 74 -165 31 -238 -14 -24 -33
-48 -43 -53 -15 -8 -17 -2 -18 53 0 73 -37 190 -66 210 -11 8 -32 12 -46 10
-26 -5 -26 -5 -7 16 37 41 104 42 149 2z m-1466 -11 c2 -21 4 -47 6 -58 2 -10
7 -43 11 -73 3 -30 8 -68 10 -85 2 -16 7 -52 10 -80 3 -27 8 -59 10 -70 2 -11
4 -24 4 -28 1 -4 13 -19 27 -32 l27 -25 -29 -1 c-16 0 -38 -2 -49 -5 -11 -2
-49 -6 -85 -9 -56 -5 -63 -4 -48 8 26 21 30 57 18 148 -6 46 -13 100 -15 119
-20 150 -25 176 -41 187 -22 16 -20 18 46 30 96 18 96 18 98 -26z m1286 -26
c8 -67 17 -135 21 -163 5 -29 42 -89 63 -102 13 -8 7 -9 -22 -4 -22 4 -37 3
-34 -2 3 -5 9 -30 12 -56 9 -63 15 -78 35 -78 39 -1 -17 -18 -78 -24 -35 -3
-67 -9 -72 -11 -4 -3 -2 6 6 21 7 14 12 36 10 48 -2 11 -6 50 -10 86 -4 36 -9
74 -11 85 -1 11 -5 47 -8 80 -4 42 -12 65 -25 76 -18 15 -16 17 42 57 33 23
62 41 63 39 1 -1 4 -24 8 -52z m-234 -5 c28 -15 61 -94 63 -148 2 -53 -13 -91
-52 -134 -28 -31 -46 -37 -33 -10 22 42 -27 223 -69 255 -23 16 -30 17 -50 6
-23 -12 -23 -11 -9 7 41 52 84 59 150 24z m-176 -25 c2 -17 7 -57 11 -90 11
-105 25 -143 62 -175 l34 -30 -37 6 -37 6 7 -32 c3 -18 6 -43 6 -56 0 -13 9
-33 20 -44 10 -10 16 -21 12 -24 -4 -2 -40 -7 -80 -11 -73 -7 -74 -7 -62 15
11 20 10 55 -5 165 -3 17 -9 68 -15 115 -7 53 -17 89 -26 96 -12 10 -5 19 43
53 31 22 58 39 59 38 2 -2 5 -16 8 -32z m-192 -65 c4 -30 10 -82 13 -115 4
-33 13 -65 20 -71 11 -8 2 -19 -45 -52 -56 -38 -60 -40 -61 -19 0 12 -2 31 -4
42 -2 11 -6 41 -9 67 -13 122 -20 154 -34 170 -17 20 -10 25 48 31 63 7 65 6
72 -53z m-218 -7 c3 -21 8 -65 12 -98 3 -33 13 -75 20 -94 13 -30 17 -33 44
-28 41 9 30 -14 -21 -42 -87 -49 -121 -15 -143 142 -9 71 -20 115 -31 127 -16
18 -15 19 17 23 92 11 96 10 102 -30z m151 -314 c3 -23 6 -45 21 -174 3 -33 8
-69 10 -80 2 -11 7 -51 11 -90 5 -54 11 -74 30 -93 12 -12 23 -24 23 -25 0 -2
-15 -4 -32 -5 -18 -2 -59 -6 -91 -11 -55 -7 -56 -7 -41 10 14 16 16 32 10 106
-4 47 -9 89 -11 92 -1 3 -6 35 -9 71 -9 90 -17 129 -27 136 -5 3 -9 9 -9 13 0
9 102 82 107 77 2 -2 6 -14 8 -27z m-243 -60 c52 -28 75 -87 63 -160 -9 -49
-54 -94 -110 -108 -61 -15 -73 -14 -46 5 34 24 49 69 44 128 -6 68 -28 112
-64 128 -16 7 -29 16 -29 21 0 11 116 0 142 -14z m1316 7 c16 -5 22 -15 22
-36 0 -16 3 -37 7 -47 4 -11 -13 -1 -41 24 -28 25 -63 45 -85 50 -34 6 -34 7
-11 13 30 8 76 6 108 -4z m-1506 -8 c-5 -5 -5 -34 -1 -66 9 -63 16 -123 24
-192 18 -160 23 -177 51 -199 30 -23 24 -26 -76 -36 -36 -4 -78 -9 -94 -11
-28 -3 -28 -3 -11 16 21 23 25 67 14 142 -8 56 -14 112 -25 218 -5 48 -13 70
-30 87 -13 13 -20 23 -16 24 4 0 16 2 27 5 11 2 40 6 65 10 25 3 46 7 48 8 7
7 31 1 24 -6z m1356 -17 c-18 -29 10 -55 96 -87 81 -31 126 -70 126 -109 0
-33 -24 -81 -46 -89 -14 -5 -15 -4 -4 8 18 23 -28 61 -108 87 -118 39 -157
115 -93 180 34 33 47 38 29 10z m-108 -14 c-9 -7 -24 -23 -33 -37 -12 -17 -17
-20 -17 -8 0 8 -7 22 -17 29 -15 13 -12 15 23 20 59 9 60 9 44 -4z m-187 -41
c-5 -25 65 -146 90 -156 10 -4 8 -22 -8 -80 l-22 -74 -35 54 c-19 30 -59 95
-88 143 -30 49 -63 95 -74 103 -22 15 -14 21 44 27 91 10 98 9 93 -17z m-231
-19 c21 -20 27 -39 37 -113 15 -120 22 -139 48 -138 18 0 20 -3 12 -18 -22
-41 -95 -52 -129 -18 -11 11 -20 34 -21 53 0 17 -2 41 -4 52 -2 11 -7 47 -10
79 -9 74 -19 101 -42 115 -14 8 -7 10 33 11 40 0 57 -5 76 -23z m-178 -21 c-3
-13 1 -38 9 -57 17 -41 12 -57 -20 -70 -68 -25 -89 57 -29 117 40 40 48 42 40
10z m719 -141 c21 -16 62 -37 90 -46 29 -10 43 -19 32 -20 -54 -4 -94 -2 -132
5 -36 6 -43 12 -43 31 0 12 -3 38 -6 56 -5 29 -3 32 8 19 7 -9 30 -29 51 -45z
m-667 12 c-54 -43 -26 -135 36 -120 23 5 23 5 -2 -21 -33 -34 -80 -48 -111
-32 -48 24 -59 95 -21 129 16 14 111 66 122 67 3 0 -8 -11 -24 -23z m355 -208
c15 -7 24 -7 34 1 11 9 12 7 8 -9 -13 -51 -79 -72 -99 -31 -21 41 12 64 57 39z"/>
<path d="M576 2421 c-4 -5 -2 -12 3 -15 5 -4 12 -2 15 3 4 5 2 12 -3 15 -5 4
-12 2 -15 -3z"/>
<path d="M717 2424 c-8 -8 1 -24 14 -24 5 0 9 7 9 15 0 15 -12 20 -23 9z"/>
<path d="M866 2421 c-4 -5 -2 -12 3 -15 5 -4 12 -2 15 3 4 5 2 12 -3 15 -5 4
-12 2 -15 -3z"/>
<path d="M1005 2421 c-3 -5 -1 -12 5 -16 5 -3 10 1 10 9 0 18 -6 21 -15 7z"/>
<path d="M1146 2421 c-4 -5 -2 -12 3 -15 5 -4 12 -2 15 3 4 5 2 12 -3 15 -5 4
-12 2 -15 -3z"/>
<path d="M1285 2410 c3 -5 10 -10 16 -10 5 0 9 5 9 10 0 6 -7 10 -16 10 -8 0
-12 -4 -9 -10z"/>
<path d="M106 2374 c-3 -9 -6 -19 -6 -24 0 -10 166 -140 179 -140 21 0 22 35
1 52 -17 14 -19 20 -9 42 8 17 20 26 35 26 26 0 52 35 31 43 -6 2 -49 5 -94 6
-44 1 -92 4 -106 6 -17 3 -27 0 -31 -11z m130 -45 c14 -23 -13 -30 -37 -10
l-24 20 27 1 c15 0 30 -5 34 -11z"/>
<path d="M505 2349 c-10 -15 3 -25 16 -12 7 7 7 13 1 17 -6 3 -14 1 -17 -5z"/>
<path d="M646 2352 c-3 -6 -1 -14 5 -17 15 -10 25 3 12 16 -7 7 -13 7 -17 1z"/>
<path d="M936 2352 c-3 -6 -1 -14 5 -17 15 -10 25 3 12 16 -7 7 -13 7 -17 1z"/>
<path d="M1216 2352 c-3 -6 -1 -14 5 -17 15 -10 25 3 12 16 -7 7 -13 7 -17 1z"/>
<path d="M1365 2349 c-10 -15 3 -25 16 -12 7 7 7 13 1 17 -6 3 -14 1 -17 -5z"/>
<path d="M1506 2352 c-3 -6 -1 -14 5 -17 15 -10 25 3 12 16 -7 7 -13 7 -17 1z"/>
<path d="M1655 2349 c-10 -15 3 -25 16 -12 7 7 7 13 1 17 -6 3 -14 1 -17 -5z"/>
<path d="M790 2340 c0 -5 4 -10 9 -10 6 0 13 5 16 10 3 6 -1 10 -9 10 -9 0
-16 -4 -16 -10z"/>
<path d="M1070 2340 c0 -5 4 -10 9 -10 6 0 13 5 16 10 3 6 -1 10 -9 10 -9 0
-16 -4 -16 -10z"/>
<path d="M1007 2275 c-4 -8 -2 -17 3 -20 6 -4 10 3 10 14 0 25 -6 27 -13 6z"/>
<path d="M440 2270 c0 -5 5 -10 11 -10 5 0 7 5 4 10 -3 6 -8 10 -11 10 -2 0
-4 -4 -4 -10z"/>
<path d="M572 2269 c2 -6 8 -10 13 -10 5 0 11 4 13 10 2 6 -4 11 -13 11 -9 0
-15 -5 -13 -11z"/>
<path d="M715 2271 c-6 -11 9 -23 19 -14 9 9 7 23 -3 23 -6 0 -12 -4 -16 -9z"/>
<path d="M862 2269 c2 -6 8 -10 13 -10 5 0 11 4 13 10 2 6 -4 11 -13 11 -9 0
-15 -5 -13 -11z"/>
<path d="M1140 2270 c0 -5 7 -10 15 -10 8 0 15 5 15 10 0 6 -7 10 -15 10 -8 0
-15 -4 -15 -10z"/>
<path d="M502 2201 c4 -13 18 -16 19 -4 0 4 -5 9 -11 12 -7 2 -11 -2 -8 -8z"/>
<path d="M3092 2201 c2 -7 7 -12 11 -12 12 1 9 15 -3 20 -7 2 -11 -2 -8 -8z"/>
<path d="M3095 2059 c-10 -15 3 -25 16 -12 7 7 7 13 1 17 -6 3 -14 1 -17 -5z"/>
<path d="M3097 1913 c-4 -3 -7 -11 -7 -17 0 -6 5 -5 12 2 6 6 9 14 7 17 -3 3
-9 2 -12 -2z"/>
<path d="M2802 1621 c4 -13 18 -16 19 -4 0 4 -5 9 -11 12 -7 2 -11 -2 -8 -8z"/>
<path d="M2946 1621 c-4 -5 -2 -12 3 -15 5 -4 12 -2 15 3 4 5 2 12 -3 15 -5 4
-12 2 -15 -3z"/>
<path d="M3236 1553 c-10 -24 6 -34 65 -42 l54 -7 -63 -19 c-64 -19 -94 -46
-70 -62 21 -13 196 -40 209 -32 25 15 0 37 -50 44 -28 4 -51 10 -51 14 0 4 25
14 56 21 40 10 58 20 64 34 4 12 7 22 5 24 -2 3 -92 19 -155 27 -24 4 -48 9
-51 11 -4 2 -10 -4 -13 -13z"/>
<path d="M2727 1554 c-8 -8 1 -24 14 -24 5 0 9 7 9 15 0 15 -12 20 -23 9z"/>
<path d="M2876 1551 c-4 -5 -2 -12 3 -15 5 -4 12 -2 15 3 4 5 2 12 -3 15 -5 4
-12 2 -15 -3z"/>
<path d="M3016 1552 c-3 -6 -1 -14 5 -17 15 -10 25 3 12 16 -7 7 -13 7 -17 1z"/>
<path d="M360 1476 c0 -9 5 -16 10 -16 6 0 10 4 10 9 0 6 -4 13 -10 16 -5 3
-10 -1 -10 -9z"/>
<path d="M2805 1479 c-10 -15 3 -25 16 -12 7 7 7 13 1 17 -6 3 -14 1 -17 -5z"/>
<path d="M2946 1482 c-3 -6 -1 -14 5 -17 15 -10 25 3 12 16 -7 7 -13 7 -17 1z"/>
<path d="M3017 1406 c-3 -8 -2 -18 3 -21 13 -8 24 15 12 27 -6 6 -11 4 -15 -6z"/>
<path d="M420 1400 c0 -5 7 -10 15 -10 8 0 15 5 15 10 0 6 -7 10 -15 10 -8 0
-15 -4 -15 -10z"/>
<path d="M572 1399 c2 -6 8 -10 13 -10 5 0 11 4 13 10 2 6 -4 11 -13 11 -9 0
-15 -5 -13 -11z"/>
<path d="M2726 1395 c4 -8 10 -12 15 -9 14 8 10 24 -6 24 -9 0 -12 -6 -9 -15z"/>
<path d="M2872 1399 c2 -6 8 -10 13 -10 5 0 11 4 13 10 2 6 -4 11 -13 11 -9 0
-15 -5 -13 -11z"/>
<path d="M240 1368 c-142 -37 -171 -49 -168 -71 2 -13 9 -21 18 -19 68 15 69
15 76 -12 10 -40 40 -30 36 12 -1 18 2 32 7 32 5 0 16 3 25 6 11 4 17 -4 24
-28 7 -25 13 -32 28 -30 26 5 25 1 6 63 l-17 56 -35 -9z"/>
<path d="M3208 1353 c-36 -43 -32 -96 11 -117 14 -7 49 -19 78 -25 61 -15 84
-6 103 40 11 27 11 36 -1 58 -28 50 -160 80 -191 44z m145 -53 c5 0 7 -10 5
-22 -2 -19 -9 -23 -36 -21 -49 2 -92 23 -92 43 0 26 18 29 70 14 25 -8 49 -14
53 -14z"/>
<path d="M356 1331 c-4 -5 -2 -12 3 -15 5 -4 12 -2 15 3 4 5 2 12 -3 15 -5 4
-12 2 -15 -3z"/>
<path d="M502 1331 c4 -13 18 -16 19 -4 0 4 -5 9 -11 12 -7 2 -11 -2 -8 -8z"/>
<path d="M2802 1331 c2 -7 7 -12 11 -12 12 1 9 15 -3 20 -7 2 -11 -2 -8 -8z"/>
<path d="M2946 1331 c-4 -5 -2 -12 3 -15 5 -4 12 -2 15 3 4 5 2 12 -3 15 -5 4
-12 2 -15 -3z"/>
<path d="M427 1264 c-8 -8 1 -24 14 -24 5 0 9 7 9 15 0 15 -12 20 -23 9z"/>
<path d="M576 1261 c-4 -5 -2 -12 3 -15 5 -4 12 -2 15 3 4 5 2 12 -3 15 -5 4
-12 2 -15 -3z"/>
<path d="M2727 1264 c-8 -8 1 -24 14 -24 5 0 9 7 9 15 0 15 -12 20 -23 9z"/>
<path d="M2876 1261 c-4 -5 -2 -12 3 -15 5 -4 12 -2 15 3 4 5 2 12 -3 15 -5 4
-12 2 -15 -3z"/>
<path d="M3016 1262 c-3 -6 -1 -14 5 -17 15 -10 25 3 12 16 -7 7 -13 7 -17 1z"/>
<path d="M229 1212 c-84 -34 -99 -47 -99 -86 0 -45 25 -76 60 -76 27 0 155 44
173 60 4 3 1 14 -5 23 -12 16 -18 15 -88 -12 -65 -26 -77 -28 -90 -15 -20 19
-3 34 75 64 72 28 77 32 69 53 -8 22 -15 21 -95 -11z"/>
<path d="M3146 1193 c-9 -22 -4 -25 101 -66 90 -34 113 -35 113 -2 0 11 -172
85 -197 85 -6 0 -14 -8 -17 -17z"/>
<path d="M356 1192 c-3 -6 -1 -14 5 -17 15 -10 25 3 12 16 -7 7 -13 7 -17 1z"/>
<path d="M505 1189 c-10 -15 3 -25 16 -12 7 7 7 13 1 17 -6 3 -14 1 -17 -5z"/>
<path d="M646 1193 c-11 -11 -6 -23 9 -23 8 0 15 4 15 9 0 13 -16 22 -24 14z"/>
<path d="M2805 1189 c-10 -15 3 -25 16 -12 7 7 7 13 1 17 -6 3 -14 1 -17 -5z"/>
<path d="M2946 1192 c-3 -6 -1 -14 5 -17 15 -10 25 3 12 16 -7 7 -13 7 -17 1z"/>
<path d="M3116 1114 c-3 -9 -6 -17 -6 -19 0 -1 23 -12 50 -24 28 -12 50 -23
50 -25 0 -2 -29 -3 -65 -2 -56 1 -65 -2 -74 -20 -9 -20 -2 -25 86 -68 75 -37
98 -45 109 -35 19 16 9 28 -50 55 l-51 24 35 1 c19 1 51 1 71 0 27 -2 38 2 43
15 9 23 5 25 -91 73 -92 46 -98 47 -107 25z"/>
<path d="M428 1113 c6 -2 18 -2 25 0 6 3 1 5 -13 5 -14 0 -19 -2 -12 -5z"/>
<path d="M575 1110 c4 -6 11 -8 16 -5 14 9 11 15 -7 15 -8 0 -12 -5 -9 -10z"/>
<path d="M2725 1110 c3 -5 12 -7 20 -3 21 7 19 13 -6 13 -11 0 -18 -4 -14 -10z"/>
<path d="M2875 1110 c4 -6 11 -8 16 -5 14 9 11 15 -7 15 -8 0 -12 -5 -9 -10z"/>
<path d="M285 1030 c-49 -27 -91 -53 -92 -57 -2 -4 1 -14 6 -22 7 -11 19 -8
65 17 31 16 56 29 56 28 0 -1 -18 -27 -40 -56 -44 -59 -44 -59 -30 -80 7 -12
25 -6 102 34 51 27 94 50 96 52 2 1 -1 12 -7 23 -11 20 -12 20 -61 -9 -28 -16
-50 -27 -50 -24 0 4 16 28 35 54 38 52 41 62 23 78 -10 7 -38 -3 -103 -38z"/>
<path d="M2806 1051 c-4 -5 -2 -12 3 -15 5 -4 12 -2 15 3 4 5 2 12 -3 15 -5 4
-12 2 -15 -3z"/>
<path d="M2945 1051 c-6 -11 9 -23 19 -14 9 9 7 23 -3 23 -6 0 -12 -4 -16 -9z"/>
<path d="M1870 975 c0 -8 5 -15 10 -15 6 0 10 7 10 15 0 8 -4 15 -10 15 -5 0
-10 -7 -10 -15z"/>
<path d="M2016 981 c-4 -5 -2 -12 3 -15 5 -4 12 -2 15 3 4 5 2 12 -3 15 -5 4
-12 2 -15 -3z"/>
<path d="M2157 984 c-8 -8 1 -24 14 -24 5 0 9 7 9 15 0 15 -12 20 -23 9z"/>
<path d="M2306 981 c-4 -5 -2 -12 3 -15 5 -4 12 -2 15 3 4 5 2 12 -3 15 -5 4
-12 2 -15 -3z"/>
<path d="M2445 981 c-3 -5 -1 -12 5 -16 5 -3 10 1 10 9 0 18 -6 21 -15 7z"/>
<path d="M2586 981 c-4 -5 -2 -12 3 -15 5 -4 12 -2 15 3 4 5 2 12 -3 15 -5 4
-12 2 -15 -3z"/>
<path d="M2727 984 c-8 -8 1 -24 14 -24 5 0 9 7 9 15 0 15 -12 20 -23 9z"/>
<path d="M2876 981 c-4 -5 -2 -12 3 -15 5 -4 12 -2 15 3 4 5 2 12 -3 15 -5 4
-12 2 -15 -3z"/>
<path d="M3029 954 c-8 -10 -9 -18 -2 -22 5 -4 34 -23 64 -42 57 -37 69 -48
69 -67 0 -24 -41 -13 -101 28 -49 33 -63 38 -75 29 -8 -7 -14 -16 -14 -21 0
-16 137 -99 162 -99 53 0 88 57 66 105 -8 18 -133 105 -150 105 -3 0 -11 -7
-19 -16z"/>
<path d="M378 859 l-88 -62 18 -29 c41 -70 84 -78 155 -29 47 32 65 55 61 79
-1 6 -2 18 -3 25 0 7 -13 27 -28 45 l-28 32 -87 -61z m102 -41 c0 -8 -78 -68
-90 -68 -3 0 -14 6 -24 13 -16 12 -13 17 36 54 47 37 54 39 66 25 6 -9 12 -19
12 -24z"/>
<path d="M2656 912 c-3 -6 -1 -14 5 -17 15 -10 25 3 12 16 -7 7 -13 7 -17 1z"/>
<path d="M2946 912 c-3 -6 -1 -14 5 -17 15 -10 25 3 12 16 -7 7 -13 7 -17 1z"/>
<path d="M2515 900 c4 -6 11 -8 16 -5 14 9 11 15 -7 15 -8 0 -12 -5 -9 -10z"/>
<path d="M2800 900 c0 -5 4 -10 9 -10 6 0 13 5 16 10 3 6 -1 10 -9 10 -9 0
-16 -4 -16 -10z"/>
<path d="M530 743 c-25 -21 -63 -54 -85 -75 l-40 -38 42 -42 c36 -36 44 -40
58 -28 14 12 13 16 -10 39 -23 25 -24 28 -8 44 16 16 18 15 40 -5 19 -17 25
-19 38 -8 14 12 14 15 -5 35 -19 20 -19 23 -5 35 13 11 19 9 40 -10 22 -21 55
-22 55 -3 0 4 -17 27 -38 51 l-37 43 -45 -38z"/>
<path d="M2882 748 c-9 -9 -3 -21 30 -55 l41 -42 -64 19 c-61 19 -65 19 -77 2
-12 -15 -5 -25 64 -89 43 -40 82 -73 86 -73 5 0 11 7 15 16 4 10 -9 31 -38 60
l-43 44 54 -20 c65 -24 84 -25 99 -6 9 11 -4 28 -66 85 -43 39 -80 71 -83 71
-3 0 -11 -5 -18 -12z"/>
<path d="M640 641 c-14 -15 -47 -50 -73 -78 l-49 -50 34 -32 c41 -39 72 -48
105 -30 33 17 93 96 93 120 0 18 -65 100 -79 99 -3 -1 -17 -13 -31 -29z m60
-71 c0 -3 -14 -22 -31 -43 -22 -26 -38 -37 -53 -35 -31 4 -26 23 19 74 36 40
41 43 52 27 7 -9 13 -19 13 -23z"/>
<path d="M2719 588 c-14 -10 -11 -22 27 -112 24 -55 47 -102 52 -104 19 -6 34
26 23 47 -10 17 -7 23 14 37 20 13 28 14 39 4 11 -8 20 -9 35 0 12 6 21 13 21
15 0 6 -169 116 -185 121 -5 1 -17 -2 -26 -8z m89 -105 c-10 -12 -14 -11 -24
9 -20 35 -17 40 11 22 21 -13 23 -19 13 -31z"/>
<path d="M2598 493 l-47 -35 60 -89 60 -89 27 15 c15 8 38 23 52 34 20 16 22
21 11 35 -12 14 -16 14 -41 -4 l-29 -20 -15 22 c-15 20 -14 23 8 38 19 12 22
19 15 33 -9 15 -12 16 -34 1 -46 -30 -62 7 -17 42 24 20 25 24 12 37 -13 13
-21 10 -62 -20z"/>
<path d="M798 410 l-56 -88 36 -24 c20 -14 47 -27 59 -30 33 -9 73 26 73 63 0
16 4 29 9 29 18 0 41 32 41 56 0 17 -13 33 -42 54 -22 16 -46 30 -52 29 -6 0
-37 -40 -68 -89z m112 3 c0 -18 -28 -29 -42 -15 -7 7 -6 17 2 32 9 17 14 19
26 9 8 -6 14 -18 14 -26z m-50 -58 c10 -12 10 -18 0 -30 -16 -19 -39 -19 -46
0 -6 15 11 45 26 45 4 0 13 -7 20 -15z"/>
<path d="M980 351 c0 -52 -6 -83 -20 -111 -20 -39 -20 -39 -1 -50 27 -14 26
-15 45 28 10 22 40 56 72 81 58 45 64 55 37 65 -10 4 -30 -5 -55 -24 l-38 -31
6 50 c4 32 2 51 -4 51 -6 0 -17 3 -26 6 -14 5 -16 -4 -16 -65z"/>
<path d="M2445 401 c-16 -10 -30 -24 -30 -32 0 -22 89 -179 101 -179 25 0 34
26 18 48 -15 21 -14 25 15 57 68 77 -13 159 -104 106z m79 -47 c6 -16 -9 -44
-24 -44 -6 0 -30 44 -30 55 0 13 49 3 54 -11z"/>
<path d="M2311 339 c-31 -12 -50 -38 -51 -66 0 -39 47 -132 73 -144 34 -15 78
0 97 34 13 23 13 32 -5 83 -30 87 -62 114 -114 93z m54 -68 c8 -16 16 -44 17
-63 3 -27 -1 -33 -17 -33 -22 0 -62 83 -52 109 10 25 35 19 52 -13z"/>
<path d="M1205 302 c-4 -10 2 -22 15 -32 l20 -15 -26 -78 c-14 -43 -25 -80
-23 -82 2 -2 13 -5 23 -7 16 -2 24 11 46 77 23 70 29 80 51 80 14 0 25 7 27
17 3 15 -9 20 -115 53 -6 2 -14 -4 -18 -13z"/>
<path d="M2133 276 c-23 -6 -44 -13 -47 -16 -3 -3 7 -49 23 -103 15 -53 26
-99 23 -102 -7 -7 13 -6 32 1 12 5 15 15 10 45 -8 47 7 52 33 9 18 -30 29 -35
57 -24 14 6 13 11 -9 40 -21 27 -25 41 -20 64 15 67 -29 105 -102 86z m55 -64
c2 -14 -3 -25 -13 -29 -19 -7 -35 12 -35 40 0 28 44 18 48 -11z"/>
<path d="M1356 243 c-4 -16 -8 -37 -10 -48 -3 -11 -9 -40 -15 -65 -16 -69 -14
-82 11 -78 17 2 24 12 31 44 7 37 10 41 33 36 25 -5 26 -13 12 -84 -2 -7 7
-14 19 -16 24 -4 25 -3 48 115 17 85 15 103 -11 103 -15 0 -18 -6 -28 -52 -6
-28 -20 -34 -43 -20 -8 5 -9 19 -4 44 7 29 5 38 -6 42 -25 10 -31 7 -37 -21z"/>
<path d="M2008 245 c-3 -3 1 -38 7 -77 14 -80 11 -98 -15 -98 -19 0 -24 14
-36 95 -9 66 -13 74 -36 70 -11 -3 -22 -6 -23 -7 -1 -2 6 -43 15 -92 20 -102
35 -121 90 -112 52 8 63 29 56 106 -3 36 -8 74 -10 85 -3 11 -5 23 -5 28 -1 8
-35 10 -43 2z"/>
<path d="M1539 236 c-3 -4 -8 -47 -14 -118 -4 -46 -9 -86 -12 -90 -2 -5 -3 -8
-1 -8 2 -1 31 -4 66 -7 58 -5 62 -4 62 16 0 17 -6 21 -35 21 -32 0 -35 2 -35
30 0 26 3 29 30 25 31 -4 49 10 33 26 -6 6 -20 11 -32 12 -15 1 -21 8 -21 25
0 21 4 23 34 19 28 -4 35 -1 39 15 3 10 0 21 -6 23 -11 4 -106 13 -108 11z"/>
<path d="M1774 223 c-8 -3 -10 -35 -7 -101 5 -115 6 -121 30 -117 10 2 37 4
60 4 33 1 41 4 39 18 -2 13 -14 19 -38 21 -29 2 -37 8 -40 27 -4 21 -1 24 25
27 20 2 31 9 33 21 2 13 -5 17 -32 17 -29 0 -34 4 -34 23 0 18 6 22 37 25 43
3 45 4 37 26 -5 12 -18 16 -53 15 -25 -1 -51 -4 -57 -6z"/>
</g>
</svg>
