<svg viewBox="0 0 100 134" fill="none" xmlns="http://www.w3.org/2000/svg">
  <rect x="4" y="4" width="96" height="130" fill="#BAAE9E" fill-opacity="0.7"/>
  <rect width="96" height="130" fill="#F8F0E2"/>
  <path d="M44.5 34.6l.2-.2.3 1.1v.2l.8 1 .3.4h.3l.1-.1.1-.1c.8-.3 1.3-.7 1.8-1.3.1-.2.3-.3.5 0 .4.8 1 1.2 1.9 1.1l1.2-.3.9-.4.1-.1c.2-.1.4-.9.2-.9-.5-.1-1-.3-1.6-.3-.4 0-.9 0-1-.3 0-.3 0-.7.2-.9.5-.8.3-1.6-.3-2.2-.2-.1-.6-.2-.8-.1-.3 0-.6.2-.8.4l-.6.6h-.1l-.3.4-.2.3-.1-.1v-.1-.1l.2-.5.3-.7a2 2 0 000-1.2c-.2-.6-.6-1-1.2-.8h-.2c-.1 0-.3 0-.4.2h-.1c-.2 0-.5.2-.6.4-.3.5-.7 1-1.1 1.3l-.4.4a6 6 0 01-.7.8l-.5.5a69.4 69.4 0 01-1.6 1.6H41s-.1-.1 0-.2V34v-.2c0-.2 0-.4.2-.6.1-.4.3-.9.6-1.3v-.2l.3-.6c.2-.2.3-.4.2-.7v-.2l-.2-.7c0-.3 0-.5-.2-.5h-.4l-1.3.1c-.3.1-.7.5-.8 1v.1l-.1.1-.2.3-.6.8-.8.8-.3.4c-.2-.5-.2-.8 0-1.1l.2-.3V31c.1-.5.2-1 .6-1.2l.5-.7c.2-.4.3-.9.8-1.2.2 0 .3-.2 0-.4l-.2-.5c-.2-.7-.2-.7-.8-.8h-.1-.2a2 2 0 01-.3 0c-.3-.1-.5.1-.7.3l-.9 1.1-.5.7-1.6 2.2-.4.2-.2.2v-.5l.2-.7.5-1 .7-1.5V27v-.3l-.1-.6c0-.3-.2-.4-.4-.5-.4-.3-.9-.2-1.3-.1-.4 0-.5.2-.7.5v.1l-.2.3-.6.8-.6.8c0 .2-.2.3-.3.5l-.4.6-.3.4-.4.4-1.1 1.7-.2.3a3.6 3.6 0 01-.6.8h-.3l-.2-.3.7-1.2v-.1l.1-.2.2-.2c.2-.4 0-.8-.3-1.2v-.2h-.2l-1.5-.2-.1.2-.3.4-.5.6-.6.7-.7 1-.4.3c-.3.1-.5.3-.6.6-.4 0-.5.3-.7.5 0 .2-.2.2-.3.3h-.2v-.5-.2c.4-.2.5-.4.4-.7l.1-.2.2-.4.4-.8.4-.7c.3-.5.6-1 .6-1.5l.3-.7.1-.3.1-.1.1-.3c0-.2-.1-.5-.3-.7a1 1 0 00-.6-.5c-.8-.1-1.3 0-1.7.7a5.2 5.2 0 00-.3.6l-.2.5v.1a3.4 3.4 0 01-.3.6 10.2 10.2 0 01-.2.6v.1l-.1.2-.4.7-.4.7v.2l-.1.2a29 29 0 01-1 1.7 49.1 49.1 0 01-1 1.3l-.3.3-.5.6a60.7 60.7 0 01-2.8 2.3c-.2 0-.3-.2-.4-.4v-.3a104.4 104.4 0 00.2-2.6l.3-.5.2-.5.2-.7V32h.1l.1-.3.2-.4V31l.2-.5 1-1.7.6-1.2.5-1 .8-1.5 1.2-2s0-.2.2-.3a21.4 21.4 0 00.8-1.2l.5-.7.6-.6.4-.5c0-.2.2-.5.5-.6V19a12 12 0 00-.5-.7L22 18H21a1 1 0 00-.5.1c-.6.5-1 1.1-1.4 1.8l-.4.6-1 1.6a28.8 28.8 0 01-.6 1.1l-.4.8-.5.8-.4 1c-.2.6-.6 1.1-1 1.7v.1c-.5.7-.9 1.5-1.2 2.4l-.3.7-.4 1.3-.1.2c-.3 1-.7 1.8-.8 2.8v1.6c0 .6.2 1.2.4 1.7v.1c.2.4.3.8.7 1.1.5.5 1 .6 1.6.2h.3v-.1h.3l.4-.1.3-.2.2-.2.2-.1.5-.4 1-1c0-.2.2-.3.3-.4l.8-1h.1c.1-.3.3-.4.6-.4a8.7 8.7 0 000 .3s0 .2.2.2l.4.4c0 .3.2.2.4.2l1-.2h.7a1145.4 1145.4 0 002.3-2.5v.5l.3.8c0 .3 0 .5.3.6l.3.2c.3.2.5.4 1 .2l.4-.2.5-.2v-.3l.2-.1c0-.2.1-.3.2-.3.3 0 .5-.2.7-.4l.2-.3c.4-.3.6-.7.8-1 .2-.5.4-1 .8-1.2v-.2a57 57 0 01.9-1h.1c-.1.4 0 .8.3 1.2v.2l.1.3.3.5.5.4h.4c.4 0 .7 0 1-.4.4-.3.7-.2.8.2L35 35c0 .4.2.8.5 1 .3.3.7.6 1.1.1h.3c.3.2.5.1.6-.2.2-.5.6-1 1-1.3h.3v.1l.1.1.1.4a4 4 0 00.8 1.7 22.6 22.6 0 01.4.4h.7l.2-.2 1.9-1 .8-.9.4-.4.3-.3zM46 107.4c.2 0 .4 0 .4-.4h.4l.7-.2.3-.1.2-.1.2-.2.6-.2c.3-.1.6-.2.9.1v.1l.2.2.2.1.4.2c.2.3.4.3.6 0l.1-.1a1 1 0 00.1-.1l.2-.2c0-.3 0-.6.3-.8v-.1-.7s0-.2-.2-.3l-.6-.3-.3-.2c-.2 0-.4-.2-.6 0l-.2.1-.3.1a20.6 20.6 0 00-1.2.4h-.2c-.5 0-.8.3-1.2.5-.3.1-.6 0-.7-.3v-.1a52 52 0 00-.7-.8h-.4-.1a4 4 0 01-.5.1c-.2 0-.5 0-.7.2a8 8 0 01-1.6.6 3 3 0 00-.5.3h-.3l-.2.1c-.4 0-.6-.2-.4-.6 0-.3 0-.4-.2-.5-.3 0-.5-.2-.7-.4-.3-.3-.7-.3-1.1-.2l-.8.2-.3.1h-.1l-.2.1c-.3.3-.7.4-1.2.5-.5 0-.5 0-.7-.4-.1-.2-.2-.3-.5-.3l-1 .1-.5.1h-.2a1 1 0 00-.5.2l-1.5.6H31a16.3 16.3 0 01-.9-.7c-.1-.1-.3-.2-.5 0h-.3c-.3 0-.5 0-.7.2l-.3.1-.5.2h-.2a38.3 38.3 0 00-.3-.5 22.5 22.5 0 00-1.1.1l-.7.1-.5.2-.3.1-1 .5-.2-.2-.2-.2c-.3-.1-.5-.2-.5-.4h-.5c-.3 0-.5 0-.7.3v.2l-.2.4c-.3.5-.2 1-.2 1.4V107c0 .6.2.6.7.5 0 .3.2.3.5.3s.6 0 .9-.3l.3-.2h.2c.1-.2.2-.2.4-.3h.2l.1-.2.3-.2c.1 0 .2 0 .3-.2l.1-.1c.2-.2.3-.1.4.1l.2.4h.2l.2.4.2.2c.4.2.9 0 1.3-.2l.6-.5.5-.4c.4-.3.5-.3.7.1v.3H30.3l.1.1.2.2c.3.2.6 0 1-.1l.2-.1h.1l.7-.4.8-.4h.3l.4-.1h.1v.2l.1.2c.3 0 .3.2.3.3 0 .2.2.3.3.4h.4v-.1H35l.3-.1h.2l.4-.2a3.2 3.2 0 01.3 0l.3-.2h.3l.7-.4c.2-.2.5-.2.8-.3h.2s.1.1 0 .2l-.1.4-.2.1.2.2c.1.1.3.3.1.5h.1l.1.1-.1.4.5.5.2-.4.1.2.3.2.3-.1h.2v-.1c.4 0 .8-.1 1.1-.5.2-.3.5-.3.7-.3h.1c.3 0 .4-.2.6-.3l.3-.3.3-.2.3-.1c.3-.2.5 0 .5.4 0 .1 0 .3.2.3l.3.1c.4.3.7.6 1.3.5zM29.9 49.5a9 9 0 01-.4.3l-.2.2-.4.4c-.2.1-.3.4-.4.7l-.2.3-.3.3c-.3.2-.6.6-.6 1l-.1.2-.6.4-.5.4c-.5.3-1.1.1-1.4-.3-.5-.8-.5-1.6 0-2.4l.5-1.2a16.7 16.7 0 012-3.7l.4-.4.1-.1.3-.3.6-.7.3-.2h.2c-.1-.4 0-.4.3-.5h.2c.8-.2 1.3.2 1.6.6l.5.5.4.2.5 1c.2.6 0 1.3-.1 2l-.1.6-.2.8c-.2.4-.2.7-.2 1v.1c0 .3.2.4.5.2.6-.3 1.1-.8 1.6-1.4a8.4 8.4 0 011.2-1.2l1.1-1 1.2-1V46h.2l.4-.4h.2l.2-.1c.7-.3 1.4 0 1.6.8v.2l.1.5-.1.6-.1.3a26.8 26.8 0 00-.5 1.7l-.2.4v.5a96.7 96.7 0 001-.9l.2-.1.2-.1.4-.3.4-.3.1-.1.5-.3.8-.1h.2c.5 0 .9 0 1.1.4.4.7.7 1.3.1 1.9v.1c0 .3-.1.4-.4.4-.2 0-.5-.1-.6-.3-.3-.5-.5-.5-1 0l-.3.3-.6.7-.9.7a31.6 31.6 0 00-.6.6c-.4.5-1 .8-1.6.8-.6 0-.9-.4-1.1-.8V53l-.1-.1c-.5-.2-.5-.6-.4-1l.1-1.5v-.2-.3l-.2-.1-.5.5a95.4 95.4 0 01-2.2 2.3l-.3.2-.5.4-.7.6c-.2.2-.6.4-.9.4a1.6 1.6 0 01-1.6-1.4l-.2-2.1v-.6-.3-.2-.1-.1zM36 80.8h.2c-.1.3 0 .6.3.6l.8-.2.3-.1.1-.2.2-.2.5-.2h.2l1.2-.6c.2 0 .4 0 .4.2l.1.2c.1.2.3.3.4.3.2.2.5.3.3.7l.5-.1.7-.4c.2 0 .2-.2.3-.3l.2-.1v-.1c.3-.2.4-.3.2-.6l-.2-.4-.2-.2-.2-.3-.1.2-.2.2c0-.4-.3-.6-.6-.7l-.3-.2H40.2a8.7 8.7 0 00-1.9.5l-.5.2h-.2l-.4.2-.5-.4-.2-.2-.3-.1-.6-.1h-1.4-.5c-.3 0-.6 0-.9.2-.1 0-.3.1-.4 0h-.6c-.3.1-.5.2-.7 0-.2-.2-.7-.3-1-.3h-.9a6 6 0 01-.3.1h-.1l-.3-.1h-.3c-.2 0-.4 0-.5-.4H27.4v-.1h-.2c-.5-.2-1-.3-1.4 0l-.3.2-.3.2H25V78c.2-.7-.1-1.3-.8-1.4h-.7l-.9.5-.4.3h-.2-.1v-.2l.1-.4c.1-.2.3-.4.3-.7v-.8c-.3-.3-.7-.3-1.1-.2l-.3.3-.6 1.3-.2.5c-.3.5-.5 1-.4 1.6 0 .5.2.8.6 1.1.4.3.8.3 1.2 0l1.4-.8s.1.1 0 .2c0 .6.2 1 .7 1.5.2.3.4.4.7.3h.4V81c.3-.4.6-.7 1.1-.8V80l.2-.2.2-.2c.2-.3.6-.2.7.2l.3.9c0 .1.1.3.4.1 0 0 .2 0 .3-.2h.2l.4-.2h.2l.3-.2.6-.2c.3 0 .5 0 .5.4l.1.2.7.1h.2c.1.2.1.2.4-.1.2.1.3.2.4 0l.3-.2.3.2h.1a154 154 0 011.3-.5c.2.2.3.1.4 0h.3s.2-.2.3-.1c.5 0 1 .1 1 .7h.2zM22.7 65.8l.2-.1a8.7 8.7 0 001.6-1.6l.3-.4.2-.3.4-.4h1c.3 0 .8.8.6 1a1 1 0 00-.2.7v.2c-.3 0-.3.2-.3.4v.3h.4l.5-.5.4-.3.3-.3h.1l.2-.2 1.3-1 .2-.1.3-.3h.5l.8.4c.3.2.4.5.3.9V64.5l-.2.3v.2l.2-.1.2-.4c.3-.6 1-1 1.7-.7h.2c.2 0 .3 0 .3.2l.2.3c0 .2.2.4 0 .7a2 2 0 00.2 1.4c.1.4-.5 1-.9 1l-.3-.2h-.2l-.4-.2h-.6l-.5.8a86.9 86.9 0 01-.2.4l-.4.4h-.2-.1c-.2.3-.5.2-.6.1-.4-.2-.7-.5-.9-.8-.1-.4-.2-.9 0-1.4v-.3c0-.2 0-.5.3-.7v-.1-.1h-.2l-.4.4-.2.3-.3.2-.2.2h-.1c-.4.6-.9 1-1.5 1.4h-.1c-.2.4-.5.4-.7.1-.3.1-.5 0-.6-.3l-.1-.1-.1-.2a2 2 0 01-.3-.4v-.4-.3a53 53 0 00-1.3 1l-1 .6-.5-.1c-.2-.3-.5-.5-.9-.6-.4-.2-.5-.4-.3-.7v-.1c-.2-.8.1-1.4.5-2V64l.2-.3c0-.1 0-.3.2-.4 0-.3.2-.6.4-.8l.4-.3.2-.2H23c.2 0 .4 0 .6.2.2 0 .3.3.4.4 0 .1 0 .2-.2.3v.1l-.2.3-.3.5a20.7 20.7 0 00-.7 1.9zM63.4 35.2H63V35l.1-.1c.3-.3.4-.6.5-1l.2-.7.3-1c0-.5-.2-1.1-.6-1.3h-.3c-.2-.1-.5-.2-.8 0-.4.3-.7.8-1 1.2v.2c0 .1-.1.3 0 .4 0 .5 0 1-.2 1.5l-.2 1.6v.5c-.1.4-.2.7.2 1v.2c0 .2.1.3.2.3.5.3 1 .7 1.5.3h.2l.3-.2.6-.3.5-.4.2-.3c.6-.6 1.1-1.3 1.4-2l.4-.8.2-.1c.1 0 .3.1.3.3v.4l.1.7.5.7c.2.3.4.6.8.4h.2v.2l.1-.1.2-.1c.5-.2 1-.5 1.4-1l.3-.3.5-.5c.3-.4.5-.6 1-.7l.1.2.1.3v.3a6 6 0 00.4 1.8c.2.6.4 1.2 1.1 1.5h.3l.3-.2.1-.1.4-.3.8-.7.3-.3-.1-.4c-.1-.2-.3-.2-.5-.2h-.3-.1c-.2 0-.4 0-.5-.3v-.3c0-.6-.2-1.2 0-1.9v-.2l.1-.3c0-.5-.2-1-.3-1.4-.1-.5-.5-.8-1-1-.3 0-.5 0-.7.3h-.2l-.2.1-.2.1-.3.3-.3.3-1.4 1.1-.5.4-.3.2V33v-.3a4 4 0 011-2c.2 0 .2-.2.2-.3v-1.1c0-.6-.1-.8-.7-1h-.1-.1l-.1-.1H69c-.7.2-1.1.8-1.5 1.4l-.2.3c-.6.5-1 1-1.3 1.7l-.1.2a7.4 7.4 0 01-1.2 1.6l-.5.7-.6.8-.3.2zM32.8 92.2c-.4.1-.6.3-.9.5l-.4.3-.5.3c-.2.2-.3.3-.3.6v.2l-.2.1c-.3-.2-.5 0-.6.2h-.1l-.6-.1-.2-.2c.1-.2 0-.4-.1-.6l-.2-.2c-.2-.4-.3-.8-.1-1.3v-.1h-.1l-.9.8-.3.3-.5.5a2 2 0 01-1 .4l-.5-.5v-.1a1 1 0 01-.3-.5v-.4-.3l-.1-.2h-.1l-.2.1-.3.3a9 9 0 01-1.3 1l-1.3 1h-.3l-.3-.2c-.2 0-.5 0-.6-.3l-.1-.1-.1-.2c0-.2 0-.3-.2-.4-.2-.3-.1-.5.1-.8l.2-.4v-.2h.1v-.2l.1-.2.1-.4c0-.5.2-.6.6-.6.5 0 .9 0 1.1.5v.8a5.5 5.5 0 01.3-.2h.1l.2-.3.6-.3 1-.8c.6-.4 1.1-.5 1.7-.3l.6.2c.3.2.3.5.3.8a26.4 26.4 0 00.8-.4l1.4-.6h.1c.4 0 1.1.7 1.2 1v.5h.6l.6-.1.2-.1c0-.3.2-.5.6-.5l.3-.1.4-.1c.5-.1 1.1.3 1.2.8v.7l.2.5.1.3.2.7v.2l-.1.2-.3.2c-.4.4-.9.3-1.3.1-.3-.1-.6-.4-.5-.9V93c-.3-.1-.2-.3-.2-.5v-.1l.1-.2zM66.5 103.4a16.2 16.2 0 01-.2-.2s-.1.1 0 .1c0 .4-.2.4-.5.4h-.4c0-.2-.2-.2-.3-.1h-.4c-.2-.2-.2-.2-.4 0l-.3.2-.3.1-.3.1c-.6.4-1 .4-1.4 0h-.7-.2l-.2.1-.5.2c-.4.2-.8.3-1.2.1l-.6.1-.1.1c-.2.1-.2.3-.2.5v.5l.8.7-.4.1c.5.2.8.2 1 0h.2c.2-.1.4-.3.7-.2l.2-.1h.2v.1c-.2.3 0 .5 0 .7h.4l.2-.1h.1l.2-.1h.1a4.9 4.9 0 00-.3.3c.3 0 .5 0 .7-.3l.3-.2H63l.5-.5.2-.2h.1l.1-.1h.1v.2l-.1.2.2-.1h.1v-.1h.1c.4.3.7.3 1 0 .2 0 .4-.2.5-.3l.4.1.1.1v-.1-.1c.5-.1.5.1.6.3l.2.4c.3-.3.7-.3.8-.2.2.2.3.3.4.2l.2-.3a16.1 16.1 0 001.3-.2l1 .1h.4l.5-.1h.1l.4-.2c.3 0 .3-.2.2-.4v-.2c.2-.3 0-.5-.1-.7H72c-.2-.3-.4-.5-.7-.3l-1.3.2a7 7 0 01-1.3 0l-.2-.2c0-.3-.3-.4-.5-.3l-.2-.2-.5-.2-.6.1-.2.1-.1-.1zM72.6 93l-.1-.1-.4-.4h-.4l-.1.2-.5.2H71v.1c-.2.2-1.3.2-1.4 0-.6-.6-1-1-.5-2l.4-.6.3-.4c.1-.3.4-.5.7-.6.4-.2 1 0 1.2.4v.2l.3.4.5-.2H72.8l.1-.1.5-.4c.4-.3.8-.4 1.3-.4.2 0 .7.6.8.9 0 .4.1.4.5.3.6-.2 1.2-.2 1.9-.1h.5l.6.3 1.4.6c.2 0 .4.2.6.4v.3l-.2.2-.7.4h-.7-.2a32.2 32.2 0 00-1.5-.6c-.4-.2-.8-.1-1.2 0-.3 0-.6.2-.8.3l-.8.3-.8.2-.5.1c-.3.3-.6.2-.8.2h-.2zM51 49.8c-.7-1.1-1.7-1.5-2.9-.9v.4c0 .3-.1.6-.3.8-.3.4-.4.9-.4 1.3v1.3l.1.2c.1.8 1 1.3 1.8 1l1.2-.5c.3-.1.5-.3.6-.5.3-.4 1.1-.5 1.5-.3l.4.4a15.6 15.6 0 00.7.5c.5.1 1 0 1.5-.4l.5-.3.5-.2 1.4-1.2.2-.6v-.1-.2c-.5-.3-1-.2-1.3 0h-.3a17.4 17.4 0 00-1.7.4s-.3 0-.3-.2l-.4-1.3c0-.4-.3-.7-.7-.7h-.3v-.1c-.2-.2-.3-.3-.6-.1l-.3.1s-.2 0-.3.2l-.4.6-.2.4zM58.3 78.2l-.5.3a26.2 26.2 0 01-2.3 1c-.3-.1-.6-.1-.8-.6l-.2-.2c0-.1-.2-.3-.3-.2l-.4.4h-.2V79.3c-.2.3-.4.4-.8.4h-.2l-.2-.3-.2-.3c-.3-.4-.4-.8-.2-1.2l.2-.5V77l.2-.4.3-1c.2-.4.2-.4.6-.3.5.1.9.3 1.1.7l.4.1c.4-.1 1.1 0 1.4.4l.2.4v.2l.4-.1.6-.2c.8-.3 1.6-.3 2.3.2l.2.4.1.2h.4l1 .1c.2 0 .4.3.5.5 0 .2-.1.3-.3.5h-.1a1.6 1.6 0 01-.6.3h-.5c-.2 0-.3 0-.4.2l-.1.1-.2.1-.7-.2H59h-.2V79h-.2c-.2-.1-.3-.2-.3-.5v-.4zM42.9 67.6v.1l.9-.4.6-.4.1.2.3.4.2.1.1.2c.4 0 .7 0 1-.3l.7-.4.5-.2.2-.1h.1l.2.2.1.1.6.3H49.4l.4-.3.5-.5V66l-.5-.1c-.2 0-.3 0-.3-.2v-.2c-.2-.2-.2-.5-.6-.6l-.2-.2c-.1-.2-.5-.4-.6-.3l-.7.2-.1.1c-.1.3-.3.4-.5.5l-.3.1-.3.2H46c.2-.3 0-.6-.1-.8l-.1-.3c0-.2-.2-.2-.4-.2L45 64a11.3 11.3 0 01-.7-1v.4h-.2c-.4.1-.7.2-1 .5a14.1 14.1 0 01-.3.6l-.1.2-.5.9c-.2.3-.3.7-.2 1 0 .4.2.6.6.8 0 0 .2 0 .3.2zM57.4 62.9c.4 0 .7.1 1 .4.3.2.3.4.3.6l.1.5.2-.1a4 4 0 011.3-1.1l.2-.1c.2-.1.6-.1.8 0h.1c.2.2.4.2.6.5v.7c-.2.4-.1.5.3.5h1.1c.3 0 .4.2.4.6 0 .4-.4.6-.7.8H63a25.6 25.6 0 01-1.5.7h-.1-.4c-.3.3-.6.3-.8.1-.2-.1-.3-.4-.4-.6l-.1-.2V66l-.1-.1h-.1l-.2.1a9.8 9.8 0 00-.7.7l-.6.3c-.3.1-.6.3-.9.2l-.3-.1-.3-.4c-.2-.2-.4-.4-.3-.8l.2-.5.1-.5.2-.3c.1-.1.3-.3.2-.6v-.3l.2-.2.2-.5V63zM59.1 93.4l.2.1h.5c.2.2.4.3.6.2.2 0 .5-.2.5-.4l.5-.4.4-.4.4.1.5.6v.1c.2.3.4.3.6.1l.4-.4.2-.2-.1-.8-.2-.6-.1-.1-.5-.5c-.1-.2-.3-.2-.5-.2h-1.1-.1c-.3-.4-1.1-.7-1.5-.5l-.5.2-.5.2-.7.3-1 .4c-.3.1-.6 0-.8 0-.3-.4-.7-.5-1-.5-.4 0-.6.1-.6.5l.2 1c0 .2 0 .3.2.4l.2.2s.2 0 .2.2c.4.3.8.3 1.2 0h.2c.2-.1.3-.3.5-.1l.3-.1.2-.1 1-.5.1.1v.7l.3.1.2.1-.4.2zM72.2 63.9h.2c.3-.3.7-.2 1 0h.5c.2 0 .3.2.5.4l.3.3.2.3c.2.1.4.2.6 0 .4-.2.8-.1 1.3 0H77.4l.5.6v.7c0 .3-.1.5-.5.4h-.3c-.1 0-.3.1-.4 0-.5.2-.6.2-1 .1h-1.4l-.3-.2-.4-.2-.2-.1V66c-.2-.6-.5-.7-1.2-.6-.3 0-.6.2-.8.4-.3.2-.7.4-1 .3-.3 0-.6-.3-.8-.5-.4-.3-.3-.7-.3-1v-.4c0-.2.3-.4.5-.6l.1-.2a5.3 5.3 0 01.7-.6c.2-.2 1.4 0 1.5.2v.5l.1.3zM42.7 92.6c.2.2.3.3 0 .5l.1.1.4.4c0 .2.2.3.4.3a25.7 25.7 0 011.4.3c0 .5.4.5.8.4H46.1c.3 0 .6-.1.8-.4l.3-.2.6-.3 1.1-.5.7-.5.2-.2.1-.2c0-.3-.5-.6-.8-.5l-1.2.3h-.4-.1V92v-.5c0-.2 0-.4-.2-.6-.4-.3-.7-.5-1.2-.3h-.2l-.2.2-.3.2-.3.2-.3.2-.1.1c-.2-.3-.5-.3-.7-.4H43c0 .2-.2.3-.3.5l-.1.1v.1c.2.2.1.4 0 .7l.1.2zM73 78h1.3l.6-.1h.2c.2 0 .8.4.7.6a3.7 3.7 0 000 .1l-.1.5c-.1.2-.4.2-.6.2H75c-.4 0-.7 0-1 .2a2 2 0 01-.9.2 16.5 16.5 0 00-.8 0h-.1c-.5 0-.9-.3-1.1-.7l-.1-.2c-.2-.4-.3-.4-.7-.2l-.8.4a1 1 0 01-.7-.2 2 2 0 01-.6-.6c-.2-.4-.2-.9 0-1.4.1-.4.3-.5.8-.4l.7.3s.2 0 .2.2c.1.2.3.2.4 0h.2l.6-.3h.3l.3.2.4.1c.6.1.7.6.7 1v.1h.2zM81 35.6l.4.2.8-.1h.2l1.5-.9.1-.3c0-.7-.3-.8-.9-.8h-.5l-.3.1H82l-.1-.2-.2-.5c0-.2.2-.5.5-.5.1 0 .3 0 .4-.2l.1-.2.1-.1c.5-.2.4-.6.3-.9-.1-.3-.4-.5-.7-.7h-1c-.2 0-.4 0-.6.2a4.1 4.1 0 00-1.2 2.4v.5l.1.3.5 1 .8.7z" fill="#BAAE9E"/>
</svg>
