<svg viewBox="0 0 24 24" xmlns="http://www.w3.org/2000/svg">
  <path d="M14.3358 12.6891L18.5785 8.44648C19.5548 7.47017 19.5548 5.88725 18.5785 4.91094C17.6022 3.93463 16.0192 3.93463 15.0429 4.91094L12.1283 7.82555C11.2701 7.55078 10.3577 7.492 9.47626 7.6492L13.6287 3.49673C15.3861 1.73937 18.2353 1.73937 19.9927 3.49673C21.75 5.25409 21.75 8.10333 19.9927 9.86069L15.75 14.1033C13.9927 15.8607 11.1434 15.8607 9.38608 14.1033C9.30068 14.0179 9.21943 13.93 9.14233 13.8396L10.7405 12.6272C10.76 12.6481 10.7799 12.6687 10.8003 12.6891C11.7766 13.6654 13.3595 13.6654 14.3358 12.6891Z" />
  <path d="M7.97187 19.0738L10.8761 16.1696C11.7344 16.4443 12.6468 16.5031 13.5282 16.3459L9.38608 20.488C7.62872 22.2454 4.77948 22.2454 3.02212 20.488C1.26476 18.7306 1.26476 15.8814 3.02212 14.124L7.26476 9.88141C9.02212 8.12405 11.8714 8.12405 13.6287 9.88141C13.7121 9.96474 13.7914 10.0505 13.8669 10.1386L12.2737 11.3568C12.2544 11.3362 12.2347 11.3158 12.2145 11.2956C11.2382 10.3193 9.65529 10.3193 8.67898 11.2956L4.43633 15.5383C3.46002 16.5146 3.46002 18.0975 4.43633 19.0738C5.41265 20.0501 6.99556 20.0501 7.97187 19.0738Z" />
</svg>
