<svg viewBox="0 0 18 18" fill="none" xmlns="http://www.w3.org/2000/svg">
<path d="M3.53653 0.524208C3.18932 0.0893982 2.86113 -0.22577 2.32025 0.20614C1.77936 0.63805 2.0141 1.02785 2.36131 1.46266L8.00487 9.33349C8.35208 9.7683 8.82055 9.45574 9.36143 9.02383C9.90231 8.59192 10.3108 8.20422 9.96357 7.76941L3.53653 0.524208Z" />
<path fill-rule="evenodd" clip-rule="evenodd" d="M3.70196 17.4038L3.70692 17.4004L3.72189 17.3908C3.73497 17.3826 3.75221 17.3721 3.77401 17.3593C3.81777 17.3337 3.87451 17.3019 3.94366 17.2647C4.0818 17.1902 4.26061 17.0986 4.46735 16.9972C4.88096 16.7944 5.39513 16.558 5.9013 16.3488C6.41322 16.1371 6.89354 15.963 7.24734 15.8741C7.27557 15.867 7.30203 15.8607 7.32674 15.8552C7.32829 15.8734 7.32965 15.8924 7.33087 15.9119C7.33221 15.9334 7.33334 15.9615 7.33467 15.9944C7.3401 16.1292 7.34878 16.3445 7.38799 16.5131C7.45456 16.7991 7.62543 17.1007 7.99835 17.2692C8.30328 17.407 8.67561 17.421 9.07424 17.3885C10.5868 17.2652 12.0078 17.0083 13.4564 16.5132L13.4728 16.5075C14.0912 16.2962 14.6997 16.0882 15.3194 15.7414C15.6248 15.5705 15.7338 15.1845 15.5629 14.8791C15.392 14.5738 15.006 14.4648 14.7007 14.6357C14.1908 14.921 13.684 15.0963 13.0465 15.3142C11.7166 15.7688 10.4019 16.009 8.97128 16.1257C8.8084 16.1389 8.6943 16.1381 8.61641 16.1309L8.61004 16.1303C8.60892 16.1105 8.60799 16.0876 8.60686 16.0597C8.60472 16.0065 8.60185 15.9353 8.59548 15.8332C8.58221 15.6201 8.55029 15.3318 8.41634 15.0282C8.31774 14.8047 8.13858 14.6808 7.98609 14.6199C7.84422 14.5633 7.70412 14.5506 7.59929 14.5494C7.38862 14.547 7.15499 14.5909 6.93869 14.6452C6.49411 14.7569 5.94603 14.9592 5.4172 15.1778C4.88261 15.3989 4.34366 15.6466 3.90946 15.8596C3.49677 16.0619 3.12536 16.2584 2.965 16.3731C2.68038 16.5766 2.61461 16.9723 2.81811 17.2569C3.02161 17.5415 3.41734 17.6073 3.70196 17.4038ZM7.59231 15.8167L7.58885 15.8165C7.59123 15.8166 7.59235 15.8167 7.59231 15.8167Z" />
<path d="M8.77449 9.84853L10.2979 8.63202L10.8193 9.28493L9.29585 10.5014L8.77449 9.84853Z" />
<path d="M10.7742 9.67651C11.426 9.15607 12.0705 9.51767 12.6046 10.1865C12.7927 10.422 12.8368 10.6983 12.8843 10.9955C12.9717 11.5423 13.0704 12.16 14.0977 12.7251C15.1476 13.3027 11.8168 14.5465 9.99759 12.2683C9.02446 11.0497 9.79434 10.4599 10.3866 10.0062C10.5382 9.89019 10.6781 9.78302 10.7742 9.67651Z" />
</svg>
